<svg width="72" height="159" viewBox="0 0 72 159" fill="none" xmlns="http://www.w3.org/2000/svg">
<path d="M32.8234 42.3672C32.7815 42.1997 32.7395 42.0321 32.7814 41.9483C33.2004 40.7751 32.9071 39.6438 32.6557 38.5125C32.3625 37.2137 32.0692 35.9148 31.734 34.6578C31.3988 33.359 31.2312 32.0601 31.2312 30.7193C31.1893 29.211 30.9798 27.7445 30.7284 26.2781C30.4351 24.5183 30.0999 22.8004 29.7647 21.0407C29.639 20.496 29.4714 19.9513 29.3876 19.4066C28.8011 16.1385 27.2927 13.2056 25.91 10.2308C25.4491 9.26708 24.9882 8.34531 24.6111 7.33973C24.4017 6.79505 24.3179 6.20846 24.1922 5.66377C24.1922 5.57998 24.1503 5.53808 24.1503 5.45428C24.1922 5.16099 24.1503 4.82579 24.4855 4.7001C24.7787 4.5744 25.0301 4.742 25.1977 4.95149C25.4072 5.24479 25.6586 5.53808 25.7843 5.83137C26.6223 7.80062 27.7955 9.51847 28.9686 11.2782C29.5971 12.1581 30.1837 13.0799 30.7284 14.0436C31.6921 15.6357 32.3625 17.3117 32.6557 19.1552C32.6976 19.3647 32.7395 19.5323 32.8652 19.7418C33.0328 18.9876 33.2004 18.2335 33.3261 17.4793C33.7032 15.4681 34.1222 13.4151 34.4993 11.4039C34.7507 9.89557 34.9602 8.3872 35.2116 6.87884C35.463 5.53808 35.7144 4.15541 36.0496 2.81465C36.1752 2.31186 36.4266 1.76718 36.678 1.30629C37.3484 0.216915 38.6473 0.216915 39.3596 1.30629C39.611 1.68338 39.8205 2.10236 39.9462 2.52135C40.5328 4.11351 41.3288 5.57998 42.2506 7.00454C42.921 8.01011 43.5076 9.05759 44.1361 10.147C44.2199 9.97936 44.3037 9.85367 44.3875 9.68608C44.9321 8.6386 45.6444 7.71682 46.6081 7.04644C47.6556 6.33416 48.8287 5.95707 50.0857 5.74757C50.9656 5.62187 51.8455 5.66377 52.7254 5.87327C53.7728 6.12466 54.527 6.71125 54.9041 7.71682C55.1136 8.26151 55.2812 8.84809 55.5326 9.39278C55.9935 10.4822 56.4962 11.5296 56.9571 12.619C57.5018 13.876 58.0884 15.1329 58.3398 16.5156C58.4655 16.5156 58.5074 16.5575 58.5912 16.5575C60.4348 16.3061 62.0269 16.8508 63.4934 17.9402C63.9961 18.2754 64.4152 18.6943 64.876 19.0714C65.4207 19.5323 65.9654 20.0351 66.552 20.4541C67.7252 21.2502 68.3955 22.3815 68.7307 23.7222C69.1497 25.3144 68.9402 26.8646 68.4375 28.373C67.8509 30.2585 66.9291 31.9344 65.714 33.4847C66.2587 35.4958 67.1386 37.3394 68.9402 38.5544C69.5687 38.9734 70.1972 39.4762 70.8257 39.979C71.2028 40.3142 71.538 40.6913 71.7056 41.1941C71.8732 41.8645 71.5799 42.3253 70.9095 42.3672C70.1972 42.4091 69.4849 42.4091 68.7726 42.3253C66.1749 42.0321 63.5353 41.6969 60.8956 41.7388C59.3454 41.7807 57.7951 41.9064 56.2448 42.032C54.946 42.1577 53.6052 42.2834 52.3064 42.4929C50.8399 42.7024 49.3734 42.9538 47.907 43.2052C45.812 43.4985 43.7171 43.9594 41.5802 43.9175C40.1557 43.8756 38.8149 43.5823 37.5579 42.9538C36.6781 42.5348 35.7982 42.1159 34.8345 41.9064C34.206 41.7807 33.6194 41.8645 33.0328 42.1578C33.0328 42.2835 32.9491 42.3253 32.8234 42.3672ZM53.7309 26.3618C52.9767 26.4037 52.3483 26.4038 51.7198 26.4457C50.3371 26.6132 48.9544 26.8646 47.6137 27.3255C46.8176 27.5769 46.0634 27.9121 45.3092 28.2892C44.7645 28.5406 44.4294 28.9596 44.178 29.5462C43.34 31.6411 42.2506 33.5685 40.9517 35.412C39.611 37.2137 38.1026 38.8477 36.0915 39.9371C35.8401 40.0628 35.7144 40.2723 35.7563 40.5656C35.7982 41.1522 36.0915 41.655 36.5523 41.9902C37.8931 43.0376 39.4015 43.6242 41.1193 43.7499C43.0048 43.8756 44.8902 43.5823 46.7338 43.2471C48.2002 42.9957 49.6667 42.7443 51.1332 42.5348C52.6415 42.3253 54.108 42.1159 55.6164 41.9483C56.8733 41.8226 58.0884 41.6969 59.3454 41.655C60.6442 41.6131 61.9431 41.6131 63.2839 41.655C64.4151 41.6969 65.5045 41.8226 66.6358 41.9483C67.7671 42.074 68.8983 42.1996 70.0296 42.2834C70.3648 42.3253 70.7419 42.2416 71.119 42.1997C71.4961 42.1159 71.5799 41.9483 71.5799 41.5712C71.5799 41.1941 71.3285 41.0265 71.0352 40.9008C70.2391 40.6075 69.4011 40.2723 68.605 39.979C67.3062 39.5181 66.133 38.8896 65.0855 37.9679C63.8286 36.8366 62.823 35.4958 62.0269 33.9875C61.5241 33.0657 61.0632 32.102 60.5604 31.1802C59.932 30.0909 59.3035 29.0015 58.4655 28.0797C57.7113 27.2836 56.8314 26.7389 55.784 26.5294C54.9879 26.4038 54.3175 26.4037 53.7309 26.3618ZM45.812 21.1245C45.7701 20.6217 45.7701 19.7837 45.6444 18.9457C45.3511 17.2279 44.6807 15.6357 43.759 14.1274C42.6696 12.3676 41.6221 10.5659 40.6165 8.76429C39.6948 7.13024 39.2758 5.32858 39.3177 3.44313C39.3177 2.94034 39.192 2.39566 39.1501 1.89287C39.0663 1.30628 38.6892 1.01299 38.1445 0.887298C37.6417 0.761601 37.2227 1.05489 36.9713 1.47388C36.7199 1.93477 36.4267 2.39565 36.301 2.89844C36.0077 4.15541 35.7144 5.41238 35.5049 6.66935C35.1697 8.5967 34.9602 10.5659 34.5831 12.4514C33.787 16.5994 32.949 20.7055 32.153 24.8116C31.9016 26.1524 31.7759 27.535 31.5664 28.8758C31.4407 29.7138 31.5245 30.5936 31.5664 31.4316C31.6083 33.4847 32.1111 35.412 32.949 37.2556C33.2004 37.8422 33.5775 38.4287 33.9546 38.9315C34.5412 39.6857 35.6306 39.979 36.678 39.2667C37.7674 38.5544 38.7311 37.7165 39.5691 36.7109C41.7059 34.2389 43.2143 31.3897 44.3875 28.373C45.2673 26.1524 45.812 23.8479 45.812 21.1245ZM44.7226 28.2892C45.3092 27.9959 45.8539 27.7445 46.3567 27.535C48.7868 26.5713 51.3008 26.1524 53.8985 26.0686C54.4851 26.0267 54.9041 25.8591 55.2812 25.4401C56.4962 24.1412 57.2504 22.5909 57.7951 20.915C58.0465 20.1189 58.2141 19.2809 58.2141 18.4011C58.256 17.1022 58.0046 15.8452 57.5018 14.6301C56.6219 12.3676 55.4488 10.2308 54.6527 7.92632C54.3594 7.04644 53.689 6.50175 52.7672 6.25036C51.7617 5.99896 50.798 5.95707 49.7924 6.16656C48.6193 6.37606 47.488 6.75314 46.5662 7.50733C45.4768 8.3453 44.7645 9.43468 44.2618 10.6916C46.6919 16.4737 46.7757 22.3396 44.7226 28.2892ZM58.4655 16.9765C58.7169 20.496 57.4599 23.387 55.1555 25.9848C55.4069 26.0267 55.6164 26.0686 55.8259 26.1105C56.6219 26.2362 57.418 26.2781 58.1722 26.4875C61.6079 27.3674 64.2475 29.2529 65.4626 32.7724C65.5045 32.8981 65.5883 33.0657 65.6721 33.2333C65.7978 33.1076 65.8816 32.9819 65.9654 32.8981C66.8034 31.683 67.5576 30.4261 68.0604 29.0434C68.3955 28.1216 68.6469 27.1998 68.7307 26.2362C68.8145 25.1887 68.6888 24.1831 68.3537 23.1775C68.1023 22.4234 67.7252 21.753 67.0967 21.2502C65.9654 20.3284 64.876 19.4066 63.7448 18.4849C62.6554 17.605 61.4403 17.0184 60.0577 16.8927C59.513 16.8089 58.9683 16.7251 58.4655 16.9765ZM56.7058 26.5294C56.7477 26.5713 56.7895 26.6132 56.8314 26.6132C58.0884 27.1998 58.9683 28.1635 59.6806 29.2948C60.309 30.3003 60.8537 31.3478 61.4403 32.3534C61.9012 33.1914 62.3202 34.0294 62.823 34.8254C64.3313 37.2556 66.3425 39.0572 69.1497 39.8533C69.6525 40.0209 70.1134 40.2304 70.6162 40.398C70.7 40.4399 70.8257 40.4818 70.9514 40.4818C70.7 40.1885 70.4486 39.9371 70.1553 39.7276C69.6525 39.3505 69.1497 39.0153 68.647 38.6382C67.4738 37.7584 66.5939 36.6271 66.0911 35.2444C65.7559 34.3227 65.4207 33.4428 65.0855 32.521C64.7503 31.683 64.3732 30.845 63.7867 30.1328C61.985 27.9121 59.5549 26.8646 56.7058 26.5294ZM31.2731 28.2054C31.6921 26.0686 32.0692 24.0155 32.4881 21.9625C32.7814 20.496 32.572 19.1133 31.8178 17.8145C30.9379 16.3061 29.8066 14.9653 28.7172 13.6246C27.3765 11.9905 26.4547 10.2308 26.1614 8.13581C26.0357 7.25593 25.7424 6.37606 25.3234 5.57998C25.1558 5.28669 24.9882 4.99339 24.5693 4.99339C24.276 5.28668 24.3598 5.62188 24.4436 5.91517C24.6112 6.54366 24.7787 7.13024 25.0301 7.71682C25.5329 8.88999 26.1195 10.0213 26.6642 11.1525C27.7117 13.4151 28.7592 15.6776 29.3876 18.1078C30.058 20.7474 30.5189 23.4289 30.9798 26.0686C31.0636 26.7808 31.1474 27.4512 31.2731 28.2054ZM39.611 2.47945C39.5691 2.64705 39.5691 2.68895 39.5691 2.73085C39.5272 4.7001 39.8624 6.54365 40.7422 8.30341C41.664 10.1889 42.7534 11.9905 43.8847 13.7503C44.6388 14.9234 45.2254 16.1385 45.6025 17.4793C45.6863 17.7307 45.7701 17.9821 45.8539 18.2335C45.8958 18.2335 45.9377 18.2335 45.9796 18.1916C45.812 17.1022 45.6863 16.0128 45.4768 14.9234C44.8902 12.1581 43.8009 9.56038 42.1668 7.21403C41.245 5.83137 40.4071 4.40681 39.8624 2.85655C39.7786 2.85655 39.7367 2.73085 39.611 2.47945ZM31.9854 17.3955C31.9854 17.3955 31.9854 17.3117 31.9854 17.2698C31.9016 16.9765 31.7759 16.7251 31.6921 16.4318C31.0217 14.5882 29.8066 13.0799 28.843 11.4458C28.1307 10.3146 27.3765 9.18329 26.6642 8.05201C26.6223 7.96822 26.5385 7.92632 26.4128 7.75872C26.4547 8.05201 26.4966 8.21961 26.5385 8.38721C26.7899 9.97937 27.3765 11.4039 28.424 12.6609C28.7592 13.0799 29.0524 13.5408 29.3876 13.9598C30.2256 15.1329 31.1055 16.2642 31.9854 17.3955Z" fill="white"/>
<path d="M35.4634 40.6491C35.5891 40.6491 35.7567 40.6072 35.8824 40.6491C38.6058 41.0262 41.1616 40.3977 43.6756 39.434C45.2258 38.8475 46.7761 38.1771 48.3264 37.5486C49.4995 37.0458 50.6727 36.543 51.8459 36.124C50.966 36.543 50.0861 37.0458 49.2062 37.4229C47.656 38.0933 46.0638 38.7637 44.5135 39.3921C43.0052 40.0206 41.4968 40.5234 39.9047 40.7748C38.4801 41.0262 37.0555 41.0681 35.631 40.8167C35.5891 40.8167 35.5472 40.7748 35.5053 40.7748C35.4634 40.7329 35.4634 40.691 35.4634 40.6491Z" fill="white"/>
<path d="M43.173 16.8502C43.0474 17.5205 42.9217 18.149 42.796 18.8194C42.4608 20.2859 42.2094 21.7523 41.7904 23.135C41.3714 24.5177 40.8686 25.9422 40.282 27.2411C39.2346 29.5455 38.0614 31.7662 36.9301 33.9868C36.8882 34.0706 36.8044 34.1544 36.6787 34.2382C36.7625 34.0706 36.8044 33.903 36.8882 33.7773C38.0195 31.431 39.1927 29.0847 40.282 26.7383C41.3295 24.4758 41.958 22.0456 42.4189 19.5736C42.5865 18.6518 42.8379 17.73 43.0474 16.8502C43.0893 16.8083 43.1311 16.8502 43.173 16.8502Z" fill="white"/>
<path d="M41.9999 42.0317C41.2457 42.1155 40.4915 42.2831 39.7792 42.325C39.0251 42.3668 38.3128 42.325 37.5586 42.4088C38.4385 42.7439 39.3183 42.7439 40.2401 42.7439C42.7541 42.7439 45.1842 42.325 47.5724 41.6965C47.6562 41.6546 47.74 41.6546 47.8657 41.7384C46.9021 41.9898 45.9384 42.2411 45.0166 42.4925C43.2988 42.8696 41.539 43.0372 39.7792 43.0372C39.3184 43.0372 38.8575 42.9953 38.4385 42.9115C37.9357 42.8277 37.4748 42.702 36.8882 42.5763C36.972 42.4506 37.0558 42.4087 37.0977 42.325C36.972 42.2831 36.8044 42.2412 36.6787 42.1993C36.6787 42.1574 36.6787 42.1155 36.6787 42.1155C37.2653 42.1574 37.8519 42.1993 38.3966 42.1993C39.0251 42.1993 39.6116 42.1574 40.2401 42.1155C40.8267 42.0736 41.4133 42.0317 42.0418 41.9898C41.9999 41.9898 41.9999 41.9898 41.9999 42.0317Z" fill="white"/>
<path d="M34.9185 21.124C34.4995 22.5486 34.0386 23.9732 33.6196 25.4396C33.1587 27.1156 32.8235 28.8334 32.6559 30.5513C32.4464 32.6881 32.5302 34.825 33.2006 36.878C33.2006 36.9199 33.2006 37.0037 33.1168 37.0456C32.9073 36.1657 32.6559 35.3278 32.5302 34.4479C32.1531 31.515 32.5721 28.6658 33.3263 25.8586C33.7453 24.3502 34.29 22.8838 34.7928 21.3754C34.7928 21.2916 34.8347 21.2078 34.9185 21.124Z" fill="white"/>
<path d="M51.092 25.4399C51.2177 25.3143 51.3015 25.1886 51.4272 25.1048C52.8518 23.6383 54.1088 22.0461 55.2819 20.4121C56.2875 19.0294 57.0417 17.4792 57.5026 15.8451C57.5864 15.5937 57.6283 15.3842 57.7121 15.1328C57.7959 15.5937 57.7121 16.0127 57.5864 16.4317C56.9998 18.1495 56.2456 19.6998 55.1143 21.1244C54.025 22.507 52.9775 23.9735 51.6367 25.1467C51.4691 25.2724 51.3434 25.398 51.2177 25.5656C51.1758 25.4818 51.1339 25.4818 51.092 25.4399Z" fill="white"/>
<path d="M35.7145 39.6854C35.7983 39.6016 35.8402 39.5179 35.924 39.476C37.558 38.219 38.7312 36.5849 39.6949 34.7414C40.5329 33.1492 41.287 31.557 42.0831 29.9649C42.1669 29.7973 42.2507 29.6716 42.3764 29.5459C42.0831 30.2163 41.8317 30.9286 41.4965 31.557C40.6585 33.3587 39.7787 35.1604 38.6893 36.8363C38.0189 37.8838 37.1809 38.7218 36.2173 39.476C36.0916 39.6016 35.924 39.6854 35.7564 39.7692C35.7564 39.7692 35.7145 39.7273 35.7145 39.6854Z" fill="white"/>
<path d="M69.9048 40.4818C69.6953 40.4399 69.4439 40.398 69.2344 40.3561C68.2289 40.1047 67.2233 39.979 66.1758 39.9371C65.1702 39.8952 64.1647 39.8114 63.201 39.8533C61.7345 39.8952 60.2262 39.979 58.7597 40.0209C58.4245 40.0209 58.0893 40.0209 57.796 40.0209C60.4776 39.6438 63.201 39.6019 65.9244 39.6857C67.0138 39.7276 68.1032 39.9371 69.1925 40.1047C69.4439 40.1466 69.6953 40.2723 69.9886 40.398C69.9467 40.4399 69.9048 40.4399 69.9048 40.4818Z" fill="white"/>
<path d="M64.7504 24.7277C63.8287 25.0628 62.9488 25.4399 62.027 25.7751C61.1471 26.0684 60.2254 26.3617 59.3036 26.655C60.5605 26.6969 61.7337 26.1941 63.0326 25.9008C62.1946 26.3198 61.3985 26.5293 60.6025 26.6969C60.3092 26.7807 59.974 26.7807 59.6807 26.8645C59.3874 26.9483 59.136 26.8645 58.9684 26.6131C58.5494 26.655 58.1723 26.655 57.7533 26.6969C57.7533 26.655 57.7533 26.5712 57.7114 26.5293C60.1416 26.3198 62.4041 25.4399 64.6248 24.5601C64.7085 24.6439 64.7085 24.6858 64.7504 24.7277Z" fill="white"/>
<path d="M34.1224 27.7025C33.2006 31.5991 33.1587 35.5376 34.5833 39.3923C34.4995 39.2666 34.4576 39.1828 34.3738 39.0571C33.871 38.0096 33.5777 36.8783 33.452 35.7052C33.3683 34.4901 33.2426 33.275 33.2426 32.0599C33.2426 30.5935 33.5358 29.127 33.9967 27.7025C33.9967 27.6606 34.0386 27.6606 34.0386 27.6187C34.0805 27.6606 34.0805 27.6606 34.1224 27.7025Z" fill="white"/>
<path d="M50.7982 12.1997C50.2535 13.1634 49.7089 14.1271 49.1223 15.0488C48.2424 16.3896 47.7815 17.898 47.3206 19.3644C46.9016 20.6214 46.5665 21.9203 46.1475 23.2191C46.1894 23.0096 46.2313 22.842 46.2732 22.6325C46.8597 20.3281 47.4044 18.0237 48.4519 15.8868C49.0385 14.546 49.8346 13.331 50.7982 12.1997Z" fill="white"/>
<path d="M51.3013 27.5767C48.4521 28.5403 45.603 29.504 43.2148 31.4733C43.1729 31.4314 43.1729 31.4314 43.131 31.3895C43.2148 31.3057 43.2567 31.18 43.3405 31.1381C44.0109 30.6772 44.6812 30.1325 45.4354 29.7554C47.1952 28.7498 49.0806 28.1213 51.0499 27.6186C51.1337 27.5767 51.2175 27.5767 51.3013 27.5767Z" fill="white"/>
<path d="M63.6612 36.4171C60.5188 36.5428 57.544 37.5065 54.4854 38.2188C54.8205 38.0931 55.1139 38.0093 55.449 37.8836C55.7842 37.7579 56.0775 37.6741 56.4127 37.5903C58.0887 37.1713 59.7227 36.7523 61.3987 36.4171C62.0272 36.2914 62.6556 36.2914 63.2841 36.2495C63.4098 36.2495 63.5355 36.2914 63.6193 36.2914C63.6612 36.3752 63.6612 36.4171 63.6612 36.4171Z" fill="white"/>
<path d="M36.1332 12.0322C35.3371 15.5517 33.7868 18.778 32.6975 22.1718C32.6556 22.1718 32.6137 22.1299 32.5718 22.1299C32.9489 21.0405 33.326 19.9092 33.7031 18.8199C34.122 17.6886 34.541 16.5573 34.96 15.426C35.379 14.2948 35.7561 13.1635 36.1332 12.0322Z" fill="white"/>
<path d="M45.0583 27.4093C46.441 24.6859 47.698 21.8786 48.8293 19.0295C48.8712 18.9876 48.9131 18.9457 48.955 18.9038C47.9075 21.8786 46.6924 24.7278 45.0583 27.4093Z" fill="white"/>
<path d="M30.7705 25.5237C30.561 23.8896 30.3515 22.2137 30.142 20.5796C29.9325 18.9456 29.6392 17.3534 29.1783 15.7612C30.3515 18.9456 30.5191 22.2556 30.7705 25.5237Z" fill="white"/>
<path d="M51.5941 5.83105C51.3846 6.20815 50.9656 6.33384 50.6724 6.58524C50.3791 6.83663 50.0858 7.08803 49.8344 7.33942C49.5411 7.59081 49.2478 7.88411 48.9964 8.1774C48.745 8.42879 48.4517 8.72208 48.2003 9.01538C47.9489 9.30867 47.6975 9.64386 47.4461 9.93715C47.2366 10.2304 46.9853 10.5656 46.7758 10.9008C46.9434 9.68576 50.3791 6.08245 51.5941 5.83105Z" fill="white"/>
<path d="M52.8513 22.0459C51.9295 23.7219 50.6307 25.0626 49.2061 26.3196C48.7452 26.7386 48.2424 27.1157 47.572 27.2833C47.572 27.1995 47.572 27.1157 47.6139 27.1157C49.2899 26.1939 50.5049 24.7693 51.7619 23.3867C52.139 22.9677 52.4742 22.5068 52.8513 22.0459Z" fill="white"/>
<path d="M39.9458 17.3533C40.4067 14.8394 41.1609 12.4093 41.3703 9.81152C41.5379 10.1048 41.5798 10.44 41.496 10.9009C41.1608 12.9958 40.6162 15.0908 40.0715 17.1019C40.0296 17.1857 39.9877 17.2695 39.9458 17.3533Z" fill="white"/>
<path d="M36.6784 7.84225C36.5946 6.45958 37.8516 1.5993 38.6058 0.803223C38.4801 1.5155 38.1449 2.01829 38.0192 2.60488C37.8516 3.19146 37.684 3.73615 37.5164 4.32274C37.3488 4.90932 37.2231 5.49591 37.0555 6.12439C36.9298 6.66908 36.8041 7.25566 36.6784 7.84225Z" fill="white"/>
<path d="M40.6169 35.7469C42.4186 33.9871 44.5554 32.7721 46.818 31.7246C44.723 33.0235 42.5443 34.1966 40.6169 35.7469Z" fill="white"/>
<path d="M36.1334 30.4256C36.6781 27.5346 37.7256 24.5598 38.815 21.585C37.8932 24.6436 37.0133 27.6603 36.1334 30.4256Z" fill="white"/>
<path d="M30.8127 19.5322C31.3574 22.0881 31.0642 24.6858 31.0642 27.2835C31.0223 25.9847 30.9804 24.7277 30.9385 23.4288C30.9385 22.13 30.8965 20.8311 30.8127 19.5322Z" fill="white"/>
<path d="M37.39 38.8057C38.9822 37.2974 40.0716 35.4119 41.2447 33.5684C41.2028 33.6941 41.119 33.8617 41.0771 33.9873C40.3648 35.37 39.5688 36.6689 38.5632 37.8839C38.3537 38.1772 38.0604 38.4286 37.809 38.68C37.6833 38.7638 37.5576 38.8476 37.4319 38.9314C37.4319 38.8895 37.4319 38.8476 37.39 38.8057Z" fill="white"/>
<path d="M59.3041 29.0015C57.3767 29.5462 55.4913 30.1746 53.6477 30.9707C55.4075 29.9651 57.2929 29.2948 59.3041 29.0015Z" fill="white"/>
<path d="M53.2288 14.2527C53.9829 12.6606 54.6952 11.1103 55.4075 9.56006C55.5332 10.1466 54.1086 13.2891 53.2288 14.2527Z" fill="white"/>
<path d="M67.2652 39.3923C65.5473 39.3504 63.7876 39.3085 62.1954 39.2666C63.4524 39.0152 66.4691 39.0571 67.2652 39.3923Z" fill="white"/>
<path d="M48.2842 14.5879C49.4155 13.0377 50.2115 11.2779 51.5523 9.85335C51.6361 9.76955 51.678 9.64386 51.7618 9.56006C51.8037 9.60196 51.8456 9.60196 51.8456 9.64386C51.259 10.4818 50.6305 11.2779 50.0439 12.1159C49.4574 12.9539 48.9127 13.8337 48.368 14.6717C48.368 14.6298 48.3261 14.6298 48.2842 14.5879Z" fill="white"/>
<path d="M46.0215 35.9566C46.1891 35.8728 46.3567 35.7471 46.5243 35.6633C48.6192 34.7416 50.798 34.1131 52.9348 33.3589C52.9767 33.3589 53.0186 33.3589 53.1443 33.4008C52.5996 33.5684 52.1387 33.736 51.6359 33.9036C49.8343 34.5321 47.9907 35.0767 46.2729 35.9147C46.1891 35.9147 46.1053 35.9147 46.0215 35.9566Z" fill="white"/>
<path d="M48.5355 9.39235C49.6668 8.21918 50.6724 6.92031 52.0131 5.99854C52.055 6.08233 52.0969 6.08233 52.0969 6.12423V6.16613C52.0969 6.20803 52.055 6.24992 52.055 6.24992C50.8818 7.2974 49.7087 8.34487 48.5355 9.39235Z" fill="white"/>
<path d="M31.609 17.144C31.9442 17.7306 32.1537 20.3284 31.9442 21.6691C31.8185 20.2027 31.6928 18.7362 31.609 17.144Z" fill="white"/>
<path d="M62.6975 17.7722C62.3204 18.0236 61.9433 18.275 61.5662 18.5683C61.1891 18.8616 60.812 19.1549 60.4768 19.4482C60.0997 19.7415 59.7645 20.0767 59.3875 20.4119C59.8902 19.4482 61.9852 17.7303 62.6975 17.7722Z" fill="white"/>
<path d="M41.9994 23.8896C41.4966 25.7751 40.7006 27.5768 39.8207 29.3365C40.5749 27.5349 41.2871 25.6913 41.9994 23.8896Z" fill="white"/>
<path d="M68.4798 28.0796C68.1865 28.5824 66.3848 29.3366 65.2535 29.3785C66.3848 28.9176 67.4323 28.4986 68.4798 28.0796Z" fill="white"/>
<path d="M66.0495 20.3697C64.9602 20.8306 63.8289 21.3334 62.7395 21.7943C63.7451 21.1239 64.8344 20.6211 66.0076 20.2021C66.0076 20.2859 66.0076 20.3278 66.0495 20.3697Z" fill="white"/>
<path d="M39.2758 10.3143C39.4853 9.14117 39.6529 7.9261 39.8624 6.75293C39.9462 7.968 39.6109 9.14117 39.2758 10.3143Z" fill="white"/>
<path d="M44.5549 32.1436C43.5912 32.8139 42.6276 33.5262 41.6639 34.1966C41.622 34.1547 41.622 34.1128 41.5801 34.1128C42.46 33.2748 43.4655 32.6463 44.5549 32.1436Z" fill="white"/>
<path d="M38.145 4.49057C38.3126 3.35929 38.5221 2.31182 39.0249 1.34814C39.0668 1.34814 39.1087 1.39005 39.1506 1.39005C38.8154 2.39562 38.4802 3.44309 38.145 4.49057Z" fill="white"/>
<path d="M64.1224 30.0904C65.0442 29.8809 65.9241 29.6714 66.8459 29.4619C66.3012 29.839 65.6727 29.9647 65.0861 30.1323C64.8347 30.2161 64.5414 30.2161 64.29 30.2161C64.2481 30.2161 64.2062 30.1323 64.1224 30.0904Z" fill="white"/>
<path d="M53.8988 37.7583C55.1139 37.2136 56.3708 36.7108 57.7116 36.4175C56.4127 36.8784 55.1558 37.2974 53.8988 37.7583Z" fill="white"/>
<path d="M56.7479 30.3418C57.6278 30.0485 58.5496 29.7552 59.4295 29.4619C59.4295 29.5038 59.4714 29.5457 59.4714 29.6295C59.0524 29.8809 58.5915 29.9228 58.1725 30.0485C57.7116 30.1742 57.2507 30.3418 56.7898 30.4675C56.7479 30.4256 56.7479 30.3837 56.7479 30.3418Z" fill="white"/>
<path d="M42.0833 11.4457C42.1252 12.2418 41.9576 12.996 41.6643 13.7083C41.7481 12.9541 41.8738 12.158 41.9576 11.4038C41.9995 11.4457 42.0414 11.4457 42.0833 11.4457Z" fill="white"/>
<path d="M63.2421 18.0236C62.6555 18.3587 62.027 18.7358 61.4404 19.071C61.9432 18.5263 62.5298 18.1492 63.1583 17.856C63.1583 17.8979 63.2002 17.9817 63.2421 18.0236Z" fill="white"/>
<path d="M55.7842 10.4823C55.6166 11.1527 55.2814 11.7812 54.9881 12.4097C54.9462 12.4097 54.9043 12.3678 54.9043 12.3678C55.1557 11.7393 55.449 11.0689 55.7004 10.4404C55.7004 10.4404 55.7423 10.4404 55.7842 10.4823Z" fill="white"/>
<path d="M65.7138 30.8868C65.3786 30.9287 65.0015 31.0125 64.6663 31.0544C64.6663 31.0125 64.6663 30.9706 64.6244 30.8868C65.0015 30.8449 65.3367 30.7611 65.7138 30.7192C65.7138 30.7611 65.7138 30.803 65.7138 30.8868Z" fill="white"/>
<path d="M46.0219 35.9146C45.561 36.1659 45.1001 36.4173 44.6392 36.6687C44.6392 36.6268 44.5973 36.5849 44.5973 36.543C45.0582 36.3335 45.5191 36.1659 46.0219 35.9146Z" fill="white"/>
<path d="M53.6891 33.1077C54.0243 32.982 54.3595 32.8982 54.6946 32.7725C54.6946 32.8144 54.6947 32.8144 54.7366 32.8563C54.4014 32.982 54.0662 33.0658 53.731 33.1915C53.731 33.1915 53.6891 33.1496 53.6891 33.1077Z" fill="white"/>
<path d="M19.1647 69.8528C19.2904 69.769 19.3742 69.6852 19.4999 69.6014C20.7987 68.6378 22.0976 67.716 23.3546 66.7523C24.821 65.6629 26.2875 64.6155 27.6283 63.4004C28.7595 62.3529 29.8908 61.3474 31.064 60.4256C32.1953 59.5457 33.4103 58.7077 34.7092 58.0373C36.3014 57.1575 38.0192 56.7385 39.8208 56.6966C42.0834 56.6128 44.2622 57.0318 46.3571 57.8697C48.9967 58.9172 51.6364 59.9228 54.2341 61.0541C55.533 61.5987 56.748 62.2272 57.9631 62.9395C59.5553 63.9032 61.1055 64.9507 62.6558 65.9562C63.8708 66.7523 64.7926 67.8836 65.7144 68.973C65.7563 69.0149 65.7563 69.0568 65.7982 69.2244C65.5887 69.1406 65.4211 69.1405 65.2954 69.0567C63.0748 67.9255 60.8541 66.7523 58.5916 65.6629C57.0832 64.9088 55.4911 64.2384 53.9827 63.4423C52.8933 62.8557 51.7202 62.3529 50.547 61.9758C49.1224 61.5149 47.656 61.2636 46.1476 61.2636C44.7649 61.2636 43.3404 61.2217 41.9577 61.2636C39.36 61.3893 36.8041 61.8082 34.3321 62.6043C31.1059 63.6518 27.9216 64.8669 24.8629 66.4171C23.0613 67.3389 21.4272 68.5121 19.7932 69.6852C19.6256 69.8109 19.458 69.8947 19.2485 70.0204C19.2485 69.9785 19.2066 69.9366 19.1647 69.8528ZM25.659 65.4115C25.7009 65.4534 25.7009 65.4534 25.7428 65.4953C25.9104 65.4115 26.0361 65.3278 26.2037 65.244C27.6283 64.4479 29.0528 63.6937 30.4774 62.8976C31.0221 62.6043 31.5668 62.3948 32.1115 62.1853C35.2958 60.8027 38.5639 59.9647 42.0415 59.6714C43.8013 59.5457 45.6029 59.6714 47.3627 60.0485C47.6559 60.0904 47.9073 60.1323 48.2006 60.1742C48.1168 60.0066 48.033 59.9228 47.9493 59.8809C47.1113 59.3362 46.2733 58.7915 45.3934 58.2887C43.927 57.4507 42.4186 56.9061 40.7007 56.9061C38.7315 56.9061 36.846 57.1575 35.1282 58.1211C32.698 59.42 30.5193 61.096 28.5081 62.9395C27.6702 63.6937 26.8741 64.406 26.0361 65.1182C25.8685 65.2439 25.7847 65.3277 25.659 65.4115ZM63.2424 67.6741C63.2424 67.6322 63.2843 67.6322 63.2843 67.5903C63.2843 67.5484 63.2424 67.5065 63.2424 67.5065C63.0748 67.3808 62.9072 67.2551 62.7396 67.1294C60.8122 65.7886 58.7173 64.6574 56.6642 63.5261C55.6587 62.9814 54.5693 62.6462 53.4799 62.311C52.3905 62.0177 51.3012 61.6406 50.2537 61.1378C49.6671 60.8865 49.0386 60.6351 48.4101 60.4675C45.98 59.8809 43.508 59.7133 40.994 60.0066C38.8153 60.258 36.7203 60.7608 34.6673 61.4311C32.8237 62.0596 31.064 62.8138 29.3461 63.7775C28.9271 64.0289 28.4662 64.1965 28.0473 64.4479C27.9216 64.4898 27.8378 64.5736 27.754 64.6574C27.9635 64.6574 28.131 64.6155 28.2986 64.5317C29.6394 63.987 30.9383 63.4004 32.279 62.9395C35.0863 61.9758 37.9354 61.2636 40.9102 61.0541C42.9214 60.9284 44.9744 60.8027 46.9856 61.0122C48.3263 61.1379 49.6252 61.3473 50.8822 61.7663C52.181 62.2272 53.4799 62.7719 54.695 63.4423C56.6642 64.4898 58.7173 65.4534 60.7284 66.4171C61.5664 66.878 62.4044 67.2551 63.2424 67.6741ZM44.9744 57.6183C44.9744 57.6602 44.9325 57.7021 44.9325 57.744C46.4828 58.6658 48.033 59.6295 49.6252 60.5094C50.8403 61.1797 52.1391 61.6825 53.5218 62.0596C54.4855 62.311 55.4492 62.6043 56.3709 62.9395C56.6642 63.0233 56.9156 63.1909 57.2089 63.3166C57.7117 63.5261 58.2145 63.6937 58.7173 63.9032C58.3402 63.5261 57.9631 63.1909 57.5441 62.9395C56.5385 62.3948 55.5329 61.8082 54.4855 61.3892C51.6363 60.2161 48.7453 59.0848 45.8543 57.9116C45.5191 57.7859 45.2258 57.7021 44.9744 57.6183ZM58.1726 64.0289C60.477 65.2858 62.6558 66.6685 64.7088 68.3026C64.1641 67.0875 59.9743 64.3641 58.1726 64.0289Z" fill="white"/>
<path d="M9.69531 21.124C10.5752 22.1715 11.4551 23.2609 12.3768 24.3502C14.3461 26.6966 16.0639 29.2524 17.8237 31.7664C19.6253 34.406 21.008 37.2132 22.1393 40.1461C23.1868 42.8696 24.1505 45.6768 24.6532 48.5678C24.9046 50.0343 25.156 51.4589 25.156 52.9253C25.1979 54.5594 25.2817 56.1934 25.2398 57.8275C25.1979 59.294 25.0303 60.7185 24.4856 62.1012C24.3599 62.3945 24.1504 62.6459 23.9828 62.8973C23.9409 62.8973 23.899 62.8554 23.8572 62.8554C23.899 62.6878 23.941 62.5202 24.0248 62.3526C24.4437 61.2213 24.5275 60.0481 24.4437 58.875C24.2761 54.8946 22.9773 51.2494 21.0918 47.7718C20.212 46.2215 19.2483 44.6712 18.2846 43.1629C17.9494 42.6182 17.4885 42.1154 17.1533 41.5707C15.6869 39.1406 14.1785 36.7104 13.1729 34.0289C12.3768 31.8502 11.7903 29.5876 11.2875 27.3251C10.8685 25.4815 10.4495 23.638 9.821 21.8782C9.821 21.6268 9.77911 21.3335 9.69531 21.124ZM10.659 23.1352C10.6171 23.1352 10.6171 23.1352 10.5752 23.1771C10.5752 23.2609 10.5752 23.3028 10.6171 23.3866C11.0361 25.0625 11.4551 26.7385 11.8741 28.4563C12.4606 30.8865 13.131 33.3585 14.1785 35.663C15.3098 38.135 16.7343 40.4394 18.2846 42.702C19.4159 44.3779 20.4633 46.0958 21.427 47.8556C22.6421 50.0343 23.5639 52.2968 24.1504 54.727C24.318 55.4812 24.4437 56.2353 24.6113 56.9895C24.6951 56.8638 24.6951 56.7381 24.6951 56.6124C24.6532 56.0677 24.6532 55.4812 24.5694 54.9365C24.4018 53.5119 24.2342 52.0454 23.9828 50.6209C23.2706 47.0176 21.9298 43.5819 20.3376 40.2718C19.6253 38.8054 18.7874 37.4227 17.9494 35.9981C15.4774 32.0177 12.9634 28.0374 11.0361 23.7637C10.8685 23.5542 10.7428 23.3447 10.659 23.1352ZM10.9942 23.0933C10.9523 23.1352 10.9523 23.1352 10.9104 23.1771C10.9523 23.2609 10.9942 23.3447 10.9942 23.4285C12.3349 26.1938 13.8014 28.8753 15.3936 31.515C16.3991 33.149 17.4885 34.7831 18.4522 36.459C19.374 38.0093 20.2538 39.6015 20.9661 41.2774C21.8041 43.1629 22.5583 45.0483 23.1868 47.0176C23.8991 49.2801 24.3599 51.5846 24.6532 53.9309C24.7789 54.9365 24.8208 55.9001 24.9046 56.9057C24.9884 56.8219 24.9884 56.7381 24.9884 56.6543C24.9465 55.3136 24.9465 53.9309 24.8208 52.5901C24.6951 51.2494 24.5694 49.8667 24.318 48.5678C23.8152 45.7606 22.8935 43.0791 21.8879 40.4394C20.7985 37.5903 19.4578 34.8669 17.7399 32.311C16.2735 30.1742 14.8908 28.0374 13.2567 25.9843C12.5863 24.9787 11.7902 24.057 10.9942 23.0933Z" fill="white"/>
<path d="M4.86762 158.47C4.86762 157.749 4.86761 157.028 4.90942 156.307C4.99302 154.468 5.07663 152.628 5.20203 150.789C5.45284 147.219 5.78726 143.685 5.62005 140.115C5.53645 138.276 5.36924 136.473 5.20203 134.634C4.99302 132.145 4.6168 129.693 4.07338 127.241C3.78077 125.943 3.44636 124.645 3.19555 123.346C2.52672 120.281 1.8579 117.216 1.31447 114.115C0.812852 111.446 0.64563 108.742 0.64563 106.037C0.64563 104.162 0.812847 102.286 1.02186 100.411C1.39807 97.2018 2.1505 94.1005 3.02834 90.9992C3.82257 88.1864 5.03482 85.4818 6.37248 82.8493C7.83554 79.9283 9.38221 77.0073 11.4723 74.3748C12.9772 72.4636 14.6074 70.6605 16.1959 68.8214C16.9901 67.9198 17.7426 66.9822 18.5786 66.0807C20.1253 64.494 21.5047 62.763 22.8006 61.0321C23.8038 59.6978 24.7653 58.2914 25.6849 56.885C27.7332 53.7476 29.3217 50.3939 30.6593 46.9681C31.4954 44.7683 32.4986 42.6046 33.4182 40.4048C33.46 40.3327 33.5018 40.2606 33.6272 40.1885C33.6272 40.2606 33.669 40.3327 33.6272 40.4048C33.2092 41.4867 32.7494 42.5325 32.3314 43.6143C31.4954 45.6698 30.6593 47.7614 29.8233 49.7809C28.82 52.0888 27.6496 54.3607 26.2701 56.5244C24.5563 59.229 22.6752 61.7894 20.5851 64.2776C20.2089 64.7464 19.8327 65.1791 19.4146 65.6479C18.1606 67.0543 16.9483 68.4607 15.6525 69.8311C11.3051 74.3748 8.21177 79.5316 5.70366 84.9769C4.82582 86.9243 3.98977 88.8716 3.36275 90.855C2.90293 92.3696 2.52671 93.8841 2.1923 95.4348C1.85789 97.0576 1.56527 98.7164 1.35627 100.339C0.980049 103.26 0.896441 106.181 1.06365 109.102C1.23085 112.131 1.73248 115.088 2.40131 118.081C2.65212 119.163 2.90294 120.245 3.11194 121.363C3.65537 123.959 4.28239 126.556 4.78402 129.188C5.07663 130.847 5.28564 132.506 5.49465 134.165C5.95447 137.627 6.03807 141.125 5.91267 144.623C5.87087 146.065 5.74546 147.508 5.62005 148.986C5.49465 150.825 5.36923 152.628 5.24382 154.468C5.16022 155.658 5.16023 156.848 5.11842 158.038C5.11842 158.218 5.11842 158.398 5.11842 158.543C5.03482 158.47 4.95123 158.47 4.86762 158.47Z" fill="white"/>
</svg>
