<svg width="181" height="185" viewBox="0 0 181 185" fill="none" xmlns="http://www.w3.org/2000/svg">
<path d="M57.5204 127.914C57.391 127.943 57.2761 127.914 57.2042 127.958C54.7828 128.727 52.2607 128.921 49.717 128.836C48.4523 128.764 47.1589 128.807 45.9014 128.585C43.8821 128.233 41.863 128.126 39.8366 127.925C39.3623 127.867 38.9024 127.753 38.4784 127.616C37.9754 127.429 37.5586 127.142 37.2424 126.697C36.8614 126.143 36.811 125.734 37.278 125.209C37.6731 124.728 38.1904 124.368 38.6287 123.959C39.031 123.571 39.5483 123.211 39.8716 122.773C41.0066 121.163 42.5369 120.049 44.1535 119.079C45.5904 118.216 47.1856 117.698 48.7879 117.274C48.9531 117.224 49.1543 117.152 49.4489 117.073C49.2333 116.958 49.1543 116.908 49.0393 116.879C46.402 116.067 44.2891 114.501 42.6001 112.339C41.5364 110.974 40.6882 109.479 40.0556 107.855C39.8183 107.216 39.6961 106.605 39.9259 105.93C40.1413 105.312 40.558 104.866 41.2119 104.816C41.8658 104.765 42.5053 104.772 43.1664 104.815C44.6826 104.98 46.1844 105.203 47.7006 105.368C49.0443 105.49 50.345 105.784 51.6385 106.474C51.5451 106.237 51.4804 106.129 51.3941 105.985C51.0634 105.353 50.7328 104.721 50.3662 104.11C49.6187 102.946 48.8137 101.768 48.0662 100.604C47.5343 99.799 46.9305 99.0374 46.6142 98.1033C46.3625 97.277 46.5852 96.5081 46.8293 95.7752C47.0017 95.3296 47.4544 95.1068 47.8999 95.0348C48.1585 94.9773 48.4387 94.9557 48.7046 94.9916C52.3478 95.1993 55.8904 95.8094 59.1745 97.4543C60.0153 97.8781 60.7843 98.345 61.6107 98.8263C61.6897 98.8766 61.8047 98.9053 61.9844 99.0418C61.8622 98.6753 61.7831 98.3807 61.668 98.1077C61.1864 96.7353 60.9274 95.327 60.7619 93.9115C60.5819 92.3091 60.1792 90.7427 59.7406 89.1979C59.604 88.6446 59.4817 88.0339 59.496 87.4878C59.5317 86.2446 60.3651 85.5978 61.5939 85.9353C62.8011 86.2369 63.8432 86.8331 64.8062 87.6233C66.3441 88.8015 67.7097 90.1808 68.8812 91.7255C69.8012 92.9325 70.6134 94.2042 71.2676 95.6197C72.389 97.9763 73.1439 100.455 73.439 103.064C73.7701 106.139 73.4186 109.135 72.4635 112.103C71.932 113.742 71.1419 115.193 70.1362 116.53C69.0801 117.946 69.0661 119.958 70.3526 121.287C70.3957 121.359 70.4173 121.395 70.4604 121.466C70.173 121.639 70.0078 121.445 69.8137 121.366C69.1454 120.985 68.4555 120.813 67.6723 120.892C67.1334 120.971 66.6808 121.194 66.53 121.92C65.9341 124.672 66.1214 127.345 67.0201 129.982C67.5018 131.354 68.235 132.576 69.1478 133.689C70.3121 135.141 71.5699 136.585 72.7701 138.014C73.8913 139.394 74.7395 140.888 74.9914 142.692C75.0921 143.511 74.9988 144.251 74.6972 144.97C74.4099 145.631 73.9429 145.911 73.2171 145.76C72.8937 145.71 72.5991 145.545 72.2901 145.437C71.1187 144.87 69.9043 144.475 68.5965 144.331C66.5845 144.073 64.8597 143.154 63.3002 141.94C61.9994 140.912 60.7633 139.748 59.7427 138.455C58.4346 136.846 57.5217 134.999 57.0112 133.009C56.63 131.479 56.7375 129.948 57.3193 128.475C57.427 128.166 57.4557 128.051 57.5204 127.914ZM52.6231 107.544C53.0688 108.205 53.766 109.204 54.4632 110.202C54.8225 110.72 55.2681 111.136 55.6993 111.611C56.8708 112.911 58.0639 114.247 59.53 115.224C61.7506 116.726 64.1939 117.702 66.6731 118.658C67.3127 118.909 67.8946 118.657 68.3473 118.19C68.8861 117.622 69.3243 116.968 69.5469 116.2C70.1142 114.54 70.0923 112.793 69.8477 111.083C69.4376 108.202 68.1509 105.651 66.3613 103.403C65.046 101.7 63.4361 100.321 61.6898 99.1209C57.7444 96.4557 53.3251 95.4434 48.6688 95.2574C48.367 95.2431 48.1083 95.3007 47.8137 95.3798C47.5191 95.4589 47.2676 95.6098 47.1599 95.9188C46.9157 96.6518 46.6716 97.3848 46.9735 98.132C47.1892 98.7356 47.4767 99.296 47.872 99.7917C48.7992 101.092 49.7264 102.393 50.5099 103.779C51.1424 104.914 51.775 106.05 52.6231 107.544ZM61.5367 125.65C62.8156 124.931 64.2812 123.71 65.4378 122.136C65.9119 121.46 66.3286 120.77 66.6662 120.03C66.975 119.405 66.8169 119.06 66.2276 118.73C66.0695 118.629 65.8755 118.55 65.6814 118.471C64.9844 118.205 64.273 117.997 63.5759 117.731C62.1818 117.2 60.7446 116.841 59.2213 117.071C58.4237 117.208 57.6046 117.308 56.8358 117.574C55.7365 117.941 54.6803 118.38 53.5881 118.84C50.8363 119.954 47.9981 120.68 45.0808 120.868C44.3335 120.925 43.6077 121.019 42.8892 121.206C41.8186 121.457 40.8558 121.889 40.1518 122.751C39.6705 123.333 39.0885 123.829 38.485 124.289C38.0755 124.584 37.7307 124.986 37.4217 125.367C37.1128 125.748 37.1489 126.215 37.5297 126.524C37.8532 126.819 38.2484 127.07 38.658 127.264C39.1036 127.436 39.5419 127.515 40.0162 127.573C42.1 127.788 44.1983 127.946 46.2893 128.254C48.172 128.541 50.1265 128.541 52.0379 128.469C55.2642 128.389 58.361 127.605 61.5367 125.65ZM65.3302 122.933C65.3086 122.897 65.2727 122.919 65.2511 122.883C65.2009 122.962 65.129 123.005 65.0787 123.084C64.2669 124.011 63.333 124.816 62.2984 125.535C61.156 126.318 59.9346 127.052 58.5766 127.476C58.009 127.67 57.7 128.051 57.5133 128.554C57.1255 129.617 56.9676 130.738 57.1115 131.874C57.4065 133.993 58.341 135.876 59.5629 137.586C60.641 139.138 61.9993 140.424 63.4798 141.587C65.1615 142.924 67.0515 143.793 69.2144 144.058C69.8395 144.123 70.436 144.302 71.054 144.518C71.557 144.705 72.0457 144.949 72.5703 145.171C72.8434 145.301 73.1524 145.408 73.4398 145.48C73.9715 145.552 74.2446 145.437 74.4313 144.934C74.5893 144.546 74.7617 144.1 74.8047 143.684C74.8907 142.361 74.5528 141.147 73.7406 140.12C73.0794 139.344 72.2529 138.862 71.3331 138.388C70.1042 137.807 68.94 137.088 67.862 136.269C65.5192 134.401 64.2037 131.966 64.0451 128.934C63.9945 127.547 64.3464 126.26 64.6982 124.974C64.8849 124.227 65.1363 123.587 65.3302 122.933ZM70.1072 115.423C70.1647 115.438 70.1647 115.438 70.2222 115.452C70.3012 115.258 70.4018 115.1 70.4808 114.906C70.7824 114.187 70.9332 113.462 71.1199 112.714C72.0676 108.431 72.1889 104.156 71.1821 99.8736C70.6931 97.6749 70.0029 95.5481 68.9678 93.5794C68.1267 91.934 67.0917 90.454 65.8556 89.0459C64.9931 88.0975 64.0588 87.1923 62.8875 86.6249C62.3988 86.3806 61.8742 86.158 61.3784 86.0647C60.4442 85.8924 59.8766 86.3308 59.8552 87.2721C59.841 87.8182 59.9201 88.3571 60.0352 88.8745C60.5744 90.7498 60.9628 92.618 61.2434 94.5509C61.3801 95.5928 61.6678 96.6418 61.9554 97.6909C62.1999 98.6681 62.7318 99.4728 63.5726 100.141C66.0161 102.095 67.9495 104.502 69.1716 107.433C70.2068 109.89 70.5737 112.456 70.1574 115.1C70.1287 115.215 70.1 115.33 70.1072 115.423ZM61.765 116.912C61.7794 116.855 61.7794 116.855 61.7937 116.797C61.5781 116.683 61.3625 116.568 61.147 116.453C60.3564 115.95 59.4797 115.548 58.7754 114.944C57.6327 114.017 56.5762 112.99 55.5557 111.941C54.2692 110.612 53.2845 109.053 52.3573 107.508C51.8829 106.718 51.2145 106.337 50.3307 106.33C49.7487 106.337 49.1882 106.381 48.6134 106.481C46.8027 106.884 45.0781 106.698 43.4181 105.886C42.9078 105.606 42.3832 105.383 41.8227 105.182C41.1041 104.88 40.5437 105.168 40.2205 105.851C39.9619 106.397 40.041 106.936 40.2352 107.503C40.5587 108.531 41.1912 109.422 41.9099 110.212C43.2611 111.649 44.8852 112.726 46.6889 113.452C48.4711 114.141 50.2676 114.773 52.0498 115.463C53.717 116.124 55.4344 116.461 57.202 116.475C58.3877 116.496 59.5662 116.669 60.7015 116.769C61.0967 116.776 61.4416 116.862 61.765 116.912ZM66.3862 121.518C66.3287 121.503 66.2712 121.489 66.2712 121.489C66.142 121.762 65.9911 121.999 65.8977 122.251C65.5315 123.35 65.1436 124.414 64.8349 125.527C64.5261 126.641 64.2892 127.712 64.3253 128.912C64.4479 130.989 65.1165 132.835 66.4605 134.423C67.3948 135.572 68.5734 136.478 69.867 137.167C70.6144 137.598 71.4336 137.986 72.2169 138.395C72.6481 138.625 73.0074 138.898 73.3668 139.171C73.1008 138.647 72.7845 138.201 72.4324 137.777C71.2321 136.348 70.0103 134.882 68.81 133.452C67.9978 132.425 67.3294 131.311 66.8621 130.126C65.9059 127.474 65.697 124.766 66.2713 121.977C66.336 121.841 66.3431 121.69 66.3862 121.518ZM41.021 121.594C41.0426 121.63 41.0642 121.666 41.0642 121.666C41.5743 121.458 42.0413 121.177 42.5586 121.062C43.4281 120.882 44.2975 120.703 45.1741 120.616C48.2208 120.4 51.0949 119.652 53.8755 118.423C55.3843 117.762 56.8788 117.158 58.4955 116.92C58.589 116.913 58.6392 116.834 58.7829 116.748C58.4811 116.733 58.2943 116.748 58.0859 116.726C55.4775 116.533 52.9123 116.655 50.3327 117.08C47.4586 117.583 44.7857 118.504 42.4435 120.3C42.0269 120.746 41.5168 121.199 41.021 121.594ZM66.4089 89.1535C66.3729 89.1751 66.337 89.1967 66.3011 89.2182C66.3442 89.2901 66.3874 89.3619 66.4305 89.4338C67.0414 90.2887 67.7242 91.1006 68.2992 91.9771C69.1114 93.2488 69.8015 94.6427 70.3263 96.0869C71.5629 99.4495 72.1887 102.934 72.1463 106.527C72.0965 109.294 71.6658 111.996 70.8975 114.705C70.8831 114.762 70.9047 114.798 70.8975 114.949C71.034 114.769 71.0843 114.69 71.149 114.554C71.58 113.806 71.9319 113.009 72.2048 112.161C72.9445 110.055 73.3824 107.935 73.418 105.715C73.4963 102.101 72.7053 98.6661 71.1238 95.4616C70.3044 93.8522 69.3556 92.2715 68.1409 90.8993C67.5516 90.3246 66.9982 89.7283 66.4089 89.1535ZM41.9675 110.715C41.9316 110.737 41.8956 110.758 41.8956 110.758C42.2766 111.311 42.6575 111.865 43.0528 112.36C44.5478 114.199 46.3444 115.564 48.5865 116.369C49.226 116.62 49.9159 116.792 50.5914 116.778C51.6979 116.749 52.8117 116.569 53.9111 116.447C53.947 116.425 53.9829 116.404 53.9973 116.346C53.9757 116.31 53.9182 116.296 53.8966 116.26C52.0426 115.614 50.2461 114.982 48.3921 114.335C46.8471 113.797 45.3524 113.179 44.0588 112.245C43.2898 111.778 42.6646 111.225 41.9675 110.715ZM42.3544 105.01C43.8061 105.8 45.2721 106.532 46.975 106.439C47.8732 106.388 49.339 106.144 49.7126 105.87C47.2192 105.461 44.7904 105.404 42.3544 105.01Z" fill="white"/>
<path d="M66.1085 95.9797C66.583 97.0143 67.0718 97.9915 67.4744 99.0692C68.1646 100.952 68.8547 102.834 69.3796 104.767C70.1131 107.454 70.5088 110.149 70.1788 112.937C70.1716 113.088 70.1645 113.239 70.0998 113.375C70.0423 113.361 70.0064 113.383 69.9848 113.347C69.9704 113.16 69.956 112.973 69.9775 112.765C70.2714 108.776 69.394 104.954 68.0712 101.203C67.5176 99.6297 66.8922 98.0993 66.3027 96.5473C66.2308 96.3461 66.1229 96.1665 65.9936 95.951C66.0367 96.0228 66.0726 96.0012 66.1085 95.9797Z" fill="white"/>
<path d="M54.2185 107.515C54.9803 108.377 55.7062 109.261 56.4681 110.123C58.9117 112.81 61.578 115.217 64.7256 117.041C65.3939 117.422 66.0766 117.745 66.7593 118.068C66.8959 118.133 67.0324 118.198 67.1905 118.298C66.4288 118.169 65.6743 117.889 65.0419 117.487C63.6046 116.639 62.1601 115.698 60.8737 114.613C58.9045 112.961 57 111.172 55.3972 109.153C54.9804 108.621 54.585 108.126 54.1682 107.594C54.1466 107.558 54.1825 107.537 54.2185 107.515Z" fill="white"/>
<path d="M62.2478 124.881C60.4733 126.239 58.2243 126.807 55.8818 127.138C53.8555 127.426 51.822 127.376 49.7813 127.233C48.1932 127.111 46.562 126.917 44.9884 126.738C44.9309 126.723 44.8159 126.695 44.7512 126.587C45.4123 126.63 46.0734 126.673 46.756 126.752C49.0051 126.917 51.2256 127.196 53.4747 127.117C55.8387 127.066 58.0805 126.649 60.2936 125.858C61.0408 125.556 61.7233 125.147 62.2478 124.881Z" fill="white"/>
<path d="M70.3057 101.181C70.0828 100.484 69.86 99.7872 69.6371 99.0903C69.0619 97.2365 68.3933 95.3899 67.5235 93.6153C66.8765 92.2932 66.1721 90.9568 65.2737 89.7857C64.749 89.0745 64.2387 88.3057 63.7283 87.5369C64.1021 87.9967 64.5692 88.4493 64.907 88.9307C65.7336 90.1449 66.5818 91.3951 67.2646 92.6955C68.271 94.5349 69.0258 96.5251 69.5939 98.5298C69.8024 99.2843 70.0325 100.075 70.241 100.829C70.2698 100.958 70.277 101.052 70.3057 101.181C70.3632 101.196 70.3417 101.16 70.3057 101.181Z" fill="white"/>
<path d="M63.5201 124.801C63.362 124.945 63.204 125.089 63.0675 125.269C62.1264 126.713 61.7603 128.301 61.7749 129.954C61.7681 131.571 62.0198 133.13 62.6596 134.603C62.9831 135.386 63.4001 136.162 63.8888 136.895C64.5285 137.879 65.2185 138.784 65.9301 139.725C65.9948 139.833 66.0379 139.905 66.1026 140.013C64.9167 138.77 63.702 137.153 62.71 135.012C61.3011 132.095 61.085 129.049 62.3922 126.016C62.7225 125.182 63.0674 124.78 63.5487 124.442C63.5919 124.514 63.6134 124.55 63.6566 124.622C63.6063 124.701 63.5704 124.722 63.5201 124.801Z" fill="white"/>
<path d="M49.0712 95.1138C53.0813 98.131 56.179 101.989 59.3127 105.826C57.6668 103.979 56.0569 102.111 54.3751 100.286C52.6933 98.4616 50.9254 96.7374 49.0712 95.1138Z" fill="white"/>
<path d="M66.3787 120.202C65.8687 120.899 65.1574 121.424 64.3599 121.805C61.5649 123.092 58.6908 123.595 55.6297 123.38C54.4943 123.28 53.3949 123.158 52.2164 122.986C52.3098 122.979 52.4032 122.971 52.5541 122.979C53.1577 123.007 53.7613 123.036 54.3649 123.064C55.1769 123.115 55.9386 123.244 56.765 123.236C59.1003 123.301 61.378 122.862 63.5479 121.999C64.6041 121.561 65.5597 121.036 66.3787 120.202Z" fill="white"/>
<path d="M63.5198 124.802C63.5341 124.744 63.606 124.701 63.6203 124.644C63.9795 124.184 64.3172 123.688 64.7266 123.149C64.8273 123.479 64.6118 123.609 64.5471 123.745C64.1664 124.414 63.6707 125.053 63.3475 125.736C62.7657 126.965 62.4929 128.301 62.4644 129.638C62.4359 130.974 62.7451 132.304 63.1621 133.568C63.3994 134.208 63.651 134.79 63.9098 135.465C62.0266 132.246 61.602 128.934 63.175 125.448C63.2899 125.233 63.4048 125.017 63.5198 124.802Z" fill="white"/>
<path d="M69.0221 117.198C69.058 116.932 69.0939 116.667 69.0938 116.422C69.1799 115.344 68.842 114.374 68.6334 113.376C68.4033 112.341 67.9145 111.364 67.4113 110.444C66.5631 108.95 65.5353 107.563 64.3997 106.241C64.2991 106.155 64.2488 105.99 64.1985 105.824C64.5506 106.248 64.9028 106.672 65.1975 107.082C65.5497 107.506 65.9018 107.929 66.2181 108.375C66.6853 109.072 67.174 109.805 67.6412 110.502C68.3456 111.594 68.7554 112.765 69.0215 114.022C69.151 114.726 69.2589 115.395 69.3525 116.12C69.3813 116.494 69.3382 116.911 69.1587 117.263C69.1012 117.249 69.0437 117.234 69.0221 117.198Z" fill="white"/>
<path d="M57.6344 122.079C57.1457 122.079 56.6356 122.044 56.1469 122.044C52.7266 122.044 49.3278 121.837 45.9361 121.234C45.6702 121.198 45.4402 121.14 45.2103 121.083C45.1528 121.069 45.0953 121.054 45.0162 121.004C47.1576 121.233 49.2487 121.542 51.3469 121.7C53.4451 121.857 55.5146 121.886 57.6272 121.986C57.6272 121.986 57.6128 122.043 57.6344 122.079Z" fill="white"/>
<path d="M59.0846 115.54C55.4054 114.377 51.92 112.804 48.8585 110.39C48.9376 110.44 48.9951 110.455 49.11 110.483C49.1891 110.534 49.2681 110.584 49.3472 110.634C51.69 112.258 54.2699 113.544 56.9072 114.599C57.6258 114.901 58.3947 115.124 59.1493 115.404C59.0774 115.447 59.099 115.483 59.0846 115.54Z" fill="white"/>
<path d="M54.4685 103.211C57.3147 106.731 60.3907 110.065 63.9482 113.061C62.3025 112.191 56.4163 106.049 54.4685 103.211Z" fill="white"/>
<path d="M61.3015 136.982C63.2637 139.518 65.118 142.119 68.086 143.807C67.7555 143.908 67.6333 143.786 67.4752 143.685C66.5697 143.153 65.7289 142.485 65.0317 141.731C63.7668 140.438 62.5881 139.044 61.6609 137.499C61.5172 137.341 61.4093 137.162 61.3015 136.982Z" fill="white"/>
<path d="M67.2094 105.63C65.6066 103.367 63.9679 101.125 61.9915 99.1351C61.9915 99.1351 62.0058 99.0776 62.0345 98.9627C64.1762 100.902 65.7431 103.187 67.2094 105.63Z" fill="white"/>
<path d="M57.0217 113.163C54.9447 111.331 52.681 109.757 50.4028 108.242C50.5178 108.27 50.6543 108.335 50.7334 108.385C52.1635 109.14 53.493 110.052 54.7722 111.043C55.4334 111.575 56.1592 111.97 56.6839 112.681C56.7917 112.861 56.9354 113.019 57.0217 113.163Z" fill="white"/>
<path d="M38.9161 123.786C39.103 123.772 39.3042 123.7 39.4766 123.743C40.691 123.894 41.9126 124.138 43.127 124.288C44.133 124.417 45.0959 124.475 46.0803 124.568C46.2887 124.59 46.4756 124.575 46.7414 124.611C45.8576 124.848 43.6229 124.626 38.9161 123.786Z" fill="white"/>
<path d="M55.6249 96.0172C57.8456 97.5186 59.6998 99.3865 61.2595 101.578C60.663 100.91 60.088 100.277 59.4556 99.6308C58.8231 98.9842 58.2122 98.3736 57.5295 97.806C56.8826 97.2169 56.1855 96.7069 55.4669 96.1609C55.5172 96.0819 55.5531 96.0603 55.6249 96.0172Z" fill="white"/>
<path d="M66.6911 99.8811C67.5536 101.318 69.1856 105.909 69.265 107.914C69.2147 107.749 69.1284 107.605 69.114 107.418C68.7616 105.773 68.3015 104.192 67.7119 102.64C67.3597 101.728 67.0434 100.794 66.6911 99.8811Z" fill="white"/>
<path d="M69.666 138.705C70.1907 139.171 70.6506 139.531 71.0603 139.969C71.9802 140.932 72.9002 141.894 73.8057 142.915C74.1148 143.267 74.3376 143.719 74.5964 144.15C74.7042 144.33 74.6683 144.596 74.7474 144.89C74.5893 144.79 74.5319 144.775 74.5462 144.718C74.4598 143.841 73.8489 143.231 73.274 142.598C72.124 141.334 70.9238 140.149 69.7379 138.906C69.7164 138.87 69.7164 138.87 69.666 138.705Z" fill="white"/>
<path d="M64.7686 116.38C62.7564 115.388 59.1415 112.134 57.7974 110.058C58.2286 110.532 58.7173 111.02 59.1485 111.494C60.7944 113.341 62.5911 114.95 64.668 116.293C64.7255 116.308 64.747 116.344 64.7686 116.38Z" fill="white"/>
<path d="M67.2749 108.425C67.8858 109.28 68.4393 110.365 68.921 111.493C69.3307 112.42 69.6686 113.39 69.8197 114.374C69.9132 114.856 69.8774 115.366 69.705 115.811C69.6906 115.624 69.6475 115.553 69.6403 115.459C69.6903 114.159 69.3164 112.966 68.8132 111.802C68.2885 110.602 67.7278 109.424 67.2749 108.425Z" fill="white"/>
<path d="M63.5577 97.0219C62.2495 94.6796 60.9556 92.2799 60.0282 89.7579C60.0641 89.7364 60.1 89.7148 60.136 89.6932C61.3005 92.1218 62.4291 94.5718 63.5577 97.0219Z" fill="white"/>
<path d="M61.5404 108.153C63.8402 110.437 66.0682 112.765 67.6064 115.409C66.7727 114.346 65.788 113.031 64.753 111.795C63.754 110.538 62.6113 109.367 61.5404 108.153Z" fill="white"/>
<path d="M45.3451 111.375C43.2826 110.463 41.5794 109.09 40.0413 107.424C40.0773 107.402 40.0916 107.345 40.1276 107.323C40.2282 107.409 40.3431 107.438 40.4078 107.546C41.5506 108.717 42.7939 109.73 44.1449 110.678C44.5546 110.872 44.9498 111.123 45.3451 111.375Z" fill="white"/>
<path d="M46.8229 97.6359C47.6278 98.0813 48.1597 98.8859 48.7921 99.5325C49.5036 100.229 50.1433 100.969 50.8045 101.745C50.4811 101.451 50.1002 101.142 49.7768 100.847C49.3096 100.395 48.8784 99.9206 48.4113 99.4679C47.9872 99.0872 47.5632 98.7064 47.1392 98.3257C46.9955 98.1676 46.8661 97.9521 46.7223 97.794C46.751 97.679 46.787 97.6575 46.8229 97.6359Z" fill="white"/>
<path d="M49.1602 108.938C47.1983 107.868 45.1214 106.769 43.1595 105.699C43.8206 105.742 48.075 108.026 49.1602 108.938Z" fill="white"/>
<path d="M54.3645 121.354C55.6004 121.297 56.8507 121.182 58.0938 121.217C59.3944 121.267 60.5944 120.987 61.8518 120.721C61.9452 120.714 62.0745 120.685 62.1679 120.678C62.2039 120.656 62.2254 120.692 62.2614 120.67C59.6675 121.641 56.9944 121.34 54.3645 121.354Z" fill="white"/>
<path d="M64.6555 90.3035C63.6277 88.9169 62.5712 87.4009 61.3781 85.8203C62.0607 86.1435 63.5629 88.3205 64.6555 90.3035Z" fill="white"/>
<path d="M60.5795 118.112C58.7759 118.12 56.9939 118.163 55.1544 118.192C55.528 117.919 59.3723 117.811 60.5795 118.112Z" fill="white"/>
<path d="M61.4862 125.974C60.1931 127.483 59.8341 129.164 59.7123 130.997C59.6907 130.961 59.7051 130.903 59.6835 130.867C59.6979 130.81 59.6763 130.774 59.6907 130.717C59.6976 129.344 59.9129 127.993 60.6456 126.771C60.8252 126.419 60.9904 126.125 61.4862 125.974Z" fill="white"/>
<path d="M60.6681 91.964C61.2791 93.3076 61.8543 94.6727 62.4869 96.0523C61.6746 94.7806 61.0995 93.4154 60.5963 92.0071C60.5963 92.0071 60.6322 91.9856 60.6681 91.964Z" fill="white"/>
<path d="M74.3451 145.034C73.6336 144.093 72.922 143.152 72.2321 142.247C73.1017 143.044 73.8491 143.964 74.4529 144.97C74.417 144.991 74.3811 145.013 74.3451 145.034Z" fill="white"/>
<path d="M42.4631 108.854C41.5145 108.25 40.6736 107.582 39.9477 106.699C39.9836 106.677 39.998 106.619 40.0339 106.598C40.846 107.381 41.6725 108.107 42.4631 108.854Z" fill="white"/>
<path d="M56.8535 96.5996C57.874 97.1599 58.6574 98.0579 59.4192 98.9201C58.6071 98.137 57.7375 97.3396 56.8535 96.5996Z" fill="white"/>
<path d="M42.2867 123.62C41.4029 123.613 40.4903 123.476 39.4987 123.29C39.9729 123.103 41.3957 123.275 42.2867 123.62Z" fill="white"/>
<path d="M52.2909 97.1392C51.6081 96.5717 50.9829 96.0185 50.3001 95.451C50.336 95.4294 50.3504 95.3719 50.4223 95.3288C51.1337 95.7813 51.7662 96.4279 52.2909 97.1392Z" fill="white"/>
<path d="M59.2453 128.833C59.5182 127.985 59.6761 127.109 60.4736 126.484C60.4593 126.785 60.1719 126.958 60.0785 127.209C59.9492 127.482 59.8199 127.755 59.6907 128.029C59.5614 128.302 59.4896 128.589 59.3603 128.862C59.3028 128.848 59.2812 128.812 59.2453 128.833Z" fill="white"/>
<path d="M48.9643 99.0871C48.224 98.5052 47.5054 97.9592 46.9376 97.1761C46.9735 97.1545 46.9879 97.097 47.0597 97.0539C47.7137 97.7364 48.3318 98.4405 48.9643 99.0871Z" fill="white"/>
<path d="M63.0477 98.6963C63.6874 99.6806 64.2983 100.536 64.9164 101.484C64.4853 101.254 63.3137 99.4651 63.0477 98.6963Z" fill="white"/>
<path d="M52.89 113.688C53.8601 114.083 54.8518 114.513 55.822 114.909C55.3118 114.873 53.7237 114.262 52.89 113.688Z" fill="white"/>
<path d="M40.6303 105.311C41.2196 105.642 41.8304 106.008 42.4197 106.338C42.3837 106.36 42.4053 106.396 42.3694 106.417C41.7442 106.109 41.1549 105.778 40.5297 105.469C40.58 105.39 40.6159 105.369 40.6303 105.311Z" fill="white"/>
<path d="M121.518 141.397C121.18 141.404 120.864 141.447 120.562 141.433C120.031 141.361 119.52 141.325 119.003 141.196C116.545 140.521 114.382 139.278 112.571 137.482C111.371 136.297 110.53 134.896 110.012 133.301C109.272 131.008 108.589 128.731 107.87 126.475C107.172 124.254 106.381 122.041 105.447 119.915C105.217 119.369 105.08 118.815 104.872 118.305C104.642 117.759 104.397 117.27 104.167 116.724C104.095 116.523 104.045 116.358 103.973 116.157C104.009 116.135 104.045 116.114 104.081 116.092C104.347 116.372 104.613 116.652 104.879 116.933C106.129 118.283 107.358 119.598 108.537 120.992C109.795 122.436 110.779 123.995 111.606 125.698C112.843 128.328 113.605 131.144 114.274 133.968C114.626 135.613 115.215 137.165 116.02 138.588C116.826 140.011 118.047 140.743 119.592 141.038C120.203 141.16 120.886 141.239 121.475 141.325C121.511 141.303 121.496 141.361 121.518 141.397ZM105.54 117.953C105.504 117.974 105.468 117.996 105.468 117.996C105.576 118.176 105.684 118.355 105.792 118.535C106.438 119.613 107.121 120.669 107.732 121.768C108.099 122.379 108.394 123.033 108.71 123.722C109.227 124.829 109.616 125.964 109.954 127.178C110.335 128.709 110.845 130.211 111.334 131.676C111.802 133.106 112.233 134.558 112.923 135.951C113.707 137.582 114.892 138.825 116.373 139.745C116.452 139.795 116.567 139.824 116.646 139.874C115.719 138.818 115.151 137.546 114.676 136.267C114.274 135.19 114.022 134.119 113.749 133.012C113.123 130.26 112.275 127.544 111.01 125.03C110.499 124.017 109.903 123.104 109.234 122.235C108.566 121.365 107.847 120.575 107.143 119.727C106.625 119.11 106.072 118.513 105.54 117.953ZM114.282 138.459C113.376 137.439 112.686 136.289 112.211 135.01C111.694 133.659 111.248 132.266 110.824 130.908C110.227 129.018 109.724 127.121 109.091 125.253C108.66 124.046 108.077 122.831 107.481 121.675C106.841 120.446 106.058 119.304 105.346 118.118C105.26 117.974 105.173 117.831 105.051 117.709C105.087 117.931 105.181 118.169 105.253 118.37C105.583 119.246 105.986 120.08 106.281 120.978C106.691 122.393 107.302 123.737 107.747 125.131C108.517 127.552 109.25 129.995 110.005 132.474C110.48 133.997 111.155 135.449 112.19 136.685C112.808 137.389 113.477 138.014 114.282 138.459Z" fill="white"/>
<path d="M83.5964 164.844C83.5677 164.715 83.503 164.607 83.4958 164.513C83.2512 162.803 83.064 161.107 82.8194 159.397C82.6898 158.449 82.5388 157.464 82.4452 156.494C82.3227 154.906 82.2937 153.311 82.6023 151.709C82.99 149.668 83.8663 147.871 85.2528 146.355C85.806 145.73 86.5245 145.298 87.2286 144.925C88.0189 144.45 88.9099 144.062 89.7218 143.624C90.354 143.293 91.0294 143.034 91.6761 142.646C94.1261 141.273 96.7344 140.734 99.5009 140.783C100.349 140.812 101.146 140.92 101.98 141.006C102.131 141.013 102.325 141.092 102.476 141.099C102.461 141.157 102.483 141.192 102.447 141.214C102.296 141.207 102.167 141.236 102.052 141.207C100.996 141.157 99.9536 141.049 98.8973 140.999C97.1656 140.964 95.4842 141.338 93.9107 142.135C92.8617 142.667 91.8127 143.199 90.8859 143.853C89.0538 145.197 87.5811 146.814 86.4964 148.834C85.3902 150.817 84.7655 152.951 84.4497 155.193C84.177 157.019 84.0552 158.851 83.9118 160.647C83.833 161.819 83.8332 163.04 83.776 164.247C83.7544 164.456 83.7114 164.628 83.6899 164.837C83.6899 164.837 83.6324 164.822 83.5964 164.844ZM83.5237 160.245C83.4518 160.044 83.344 159.864 83.3655 159.656C83.3222 158.362 83.207 157.112 83.2427 155.869C83.2996 152.952 84.1254 150.257 85.6052 147.756C86.2373 146.693 87.0276 145.73 87.9831 144.96C88.0909 144.896 88.1555 144.759 88.292 144.58C86.9269 145.155 85.5761 146.161 84.865 147.174C83.6078 148.906 82.8537 150.825 82.7176 152.959C82.6674 153.771 82.6748 154.597 82.6821 155.424C82.7687 157.522 83.0637 159.642 83.3372 161.725C83.3444 161.819 83.3875 161.891 83.4306 161.962C83.5096 161.768 83.5311 161.56 83.5167 161.373C83.5095 161.036 83.5166 160.64 83.5237 160.245C83.5812 160.259 83.6243 160.331 83.6675 160.403C83.689 160.195 83.7177 160.08 83.7249 159.929C83.8539 158.434 83.9255 156.925 84.1695 155.459C84.3705 154.166 84.6505 152.923 85.0455 151.708C86.0365 148.475 87.8611 145.816 90.62 143.817C91.0295 143.523 91.3816 143.214 91.7911 142.919C91.4247 143.041 91.1229 143.271 90.778 143.429C89.4704 144.019 88.3495 144.838 87.3941 145.852C85.3034 147.986 84.2836 150.602 83.7165 153.483C83.3575 155.165 83.4512 156.868 83.509 158.592C83.5091 159.081 83.5164 159.663 83.5237 160.245Z" fill="white"/>
<path d="M136.307 146.251C135.682 145.698 135.114 145.159 134.474 144.664C132.793 143.328 130.903 142.458 128.819 141.999C126.368 141.417 123.932 141.267 121.41 141.461C118.572 141.699 115.734 141.937 112.888 142.081C110.718 142.211 108.584 142.075 106.392 141.924C101.822 141.637 97.482 140.431 93.3212 138.628C91.9774 138.018 90.6695 137.386 89.3903 136.639C86.0989 134.656 82.9584 132.436 80.0046 129.958C78.1361 128.392 76.3034 126.804 74.4708 125.216C72.8969 123.815 71.3373 122.357 69.7634 120.956C69.3394 120.575 68.901 120.252 68.4554 119.835C68.7141 119.778 68.8579 119.936 69.016 120.037C69.555 120.446 70.0796 120.913 70.6186 121.322C71.3445 121.962 72.0847 122.544 72.7962 123.241C75.3547 125.712 78.0857 127.982 80.8167 130.252C83.447 132.436 86.2066 134.347 89.0884 136.136C93.9608 139.124 99.2857 140.912 104.919 141.587C108.541 142.003 112.206 142.002 115.827 141.685C118.421 141.448 121.015 141.21 123.587 141.181C126.627 141.115 129.544 141.661 132.318 143.026C133.921 143.823 135.265 144.922 136.508 146.179C136.415 146.187 136.379 146.208 136.307 146.251Z" fill="white"/>
<path d="M121.17 83.9907C121.22 83.9117 121.256 83.8901 121.256 83.8901C121.694 82.5032 122.19 81.1307 122.628 79.7438C122.814 79.2407 122.965 78.7593 123.209 78.2706C123.842 76.9627 124.941 76.596 126.213 77.2497C126.975 77.6232 127.564 78.1979 128.132 78.7368C128.498 79.1032 128.865 79.4695 129.267 79.8144C130.316 80.7483 130.971 81.9194 131.517 83.1553C132.063 84.3911 132.423 85.6413 132.495 87.0641C132.667 86.8628 132.754 86.7622 132.818 86.6257C134.183 84.3404 135.843 82.2203 137.466 80.1218C137.962 79.4822 138.522 78.9504 139.262 78.555C140.074 78.1165 140.735 78.4038 140.937 79.3092C141.023 79.6972 140.98 80.114 141.009 80.4876C141.023 80.6744 140.966 80.9044 140.973 81.2421C141.167 81.0768 141.289 80.9546 141.433 80.8684C141.878 80.5521 142.201 80.6024 142.46 81.0335C142.927 81.7304 143.287 82.492 143.409 83.347C143.582 84.6117 143.812 85.8907 143.704 87.1769C143.697 87.3278 143.712 87.5146 143.733 87.7949C144.114 87.3708 144.459 86.9684 144.768 86.5875C144.818 86.5084 144.868 86.4294 144.94 86.3863C145.91 85.8041 146.629 84.8842 147.455 84.1439C148.051 83.5905 148.626 83.0012 149.452 82.7495C150.422 82.4116 151.241 82.7994 151.579 83.7694C151.817 84.4089 151.889 85.0987 151.788 85.7455C151.659 86.7515 151.508 87.7216 151.322 88.7132C151.142 89.7983 150.941 90.8474 150.704 91.9181C150.424 93.4056 149.893 94.7997 148.988 95.9783C148.219 96.9772 147.342 97.7966 146.351 98.5872C144.95 99.6725 143.506 100.686 142.126 101.807C139.289 103.999 136.817 106.558 135.287 109.871C134.835 110.826 134.483 111.868 134.03 112.824C133.614 113.758 133.161 114.714 132.666 115.598C132.27 116.324 131.674 116.877 130.977 117.344C129.907 118.085 129.325 119.069 129.138 120.305C129.102 120.571 129.088 120.873 129.074 121.175C129.081 121.268 128.973 121.333 128.873 121.491C128.765 121.311 128.664 121.225 128.635 121.096C127.917 119.328 126.637 118.093 124.956 117.245C123.648 116.613 122.469 115.708 121.556 114.594C121.017 113.94 120.55 113.243 120.025 112.532C119.371 111.605 118.667 110.758 117.769 110.075C115.836 108.646 113.859 107.388 111.646 106.469C110.791 106.103 109.885 105.816 108.994 105.471C107.054 104.681 105.028 103.991 103.202 102.986C100.788 101.65 98.7178 99.9111 96.9928 97.7701C96.4538 97.1163 95.9866 96.4194 95.6775 95.5787C95.5121 95.1404 95.4186 94.659 95.785 94.2925C96.1514 93.926 96.6472 93.775 97.1502 93.9617C97.5957 94.1341 98.0413 94.3064 98.4365 94.5579C99.0258 94.8883 99.5648 95.2978 100.154 95.6282C101.656 96.5836 103.316 97.1509 105.112 97.2943C106.492 97.3947 107.857 97.5525 109.244 97.7462C111.105 97.9974 112.895 98.536 114.483 99.6351C114.842 99.9081 115.202 100.181 115.604 100.526C115.568 100.303 115.525 100.231 115.518 100.138C114.964 98.5643 114.482 96.9477 113.871 95.3597C113.498 94.4113 113.03 93.4701 112.621 92.5432C111.283 89.583 110.004 86.6371 109.328 83.4756C109.004 81.9595 109.097 80.4864 109.528 79.0061C109.722 78.3522 109.973 77.7126 110.62 77.3245C111.267 76.9363 111.906 76.9434 112.445 77.3529C113.02 77.7408 113.602 78.2221 114.019 78.7538C115.004 80.0685 116.333 80.9809 117.792 81.6201C118.805 82.087 119.682 82.7335 120.545 83.4376C120.789 83.6818 120.99 83.8542 121.17 83.9907ZM115.407 81.6349C114.975 80.9165 114.601 80.2123 114.134 79.5154C113.753 78.9622 113.301 78.4521 112.797 78.0211C111.612 77.0225 110.599 77.2885 109.995 78.7258C109.579 79.66 109.471 80.7019 109.471 81.6792C109.479 82.5055 109.579 83.3247 109.752 84.1007C110.428 87.0179 111.6 89.7841 112.879 92.4857C113.311 93.4485 113.756 94.3538 114.13 95.3022C114.712 96.7608 115.201 98.2265 115.69 99.6923C116.416 101.798 117.121 103.867 117.811 105.994C118.372 107.661 118.825 109.392 119.551 111.009C120.543 113.15 121.887 114.982 123.849 116.297C124.841 116.972 125.854 117.439 127.032 117.611C127.356 117.661 127.729 117.633 128.046 117.589C128.858 117.395 129.073 116.777 128.627 116.116C127.355 114.241 126.758 112.107 126.55 109.887C126.283 106.919 126.469 103.973 127.338 101.106C127.532 100.452 127.597 99.8266 127.489 99.1584C127.295 98.1021 127.1 97.0459 126.798 96.0543C126.46 94.84 126.015 93.6904 125.605 92.5192C125.31 91.6211 124.85 90.7733 124.232 90.0692C123.47 89.2071 122.622 88.4455 121.58 87.8493C120.696 87.3537 119.877 86.7215 119.043 86.1468C117.951 85.3853 117.088 84.437 116.434 83.2659C116.111 82.727 115.73 82.1738 115.407 81.6349ZM140.793 82.3272C140.736 82.3128 140.7 82.3344 140.642 82.32C140.65 82.1691 140.599 82.0039 140.606 81.853C140.65 81.4362 140.728 80.9978 140.75 80.5451C140.779 80.1859 140.771 79.8481 140.707 79.4961C140.556 78.756 140.11 78.5836 139.442 78.9358C138.846 79.2449 138.335 79.6977 137.904 80.2008C137.272 81.0201 136.618 81.8034 136.008 82.6586C133.228 86.331 130.857 90.1973 129.744 94.7747C129.658 95.1196 129.479 95.4718 129.356 95.8383C128.976 96.9952 128.595 98.1522 128.215 99.3091C127.389 101.76 126.829 104.246 126.765 106.826C126.722 108.953 126.866 111.065 127.513 113.12C127.908 114.349 128.433 115.549 129.332 116.475C130.252 117.438 130.64 117.352 131.509 116.683C131.617 116.619 131.703 116.518 131.789 116.417C132.522 115.684 132.938 114.75 133.355 113.816C134.16 112.062 134.562 110.209 134.964 108.355C135.732 104.912 136.809 101.578 138.583 98.5096C139.065 97.6831 139.51 96.8783 139.934 96.0375C140.803 94.3918 141.65 92.7102 142.462 91.0502C142.965 90.0154 143.238 88.9231 143.338 87.7878C143.453 86.3506 143.273 84.9926 143.107 83.577C143.014 82.8513 142.755 82.1759 142.367 81.5293C142.259 81.3497 142.058 81.1772 141.972 81.0335C141.275 81.2564 141.196 81.9391 140.793 82.3272ZM121.529 84.2637C121.673 84.4218 121.817 84.5798 121.939 84.702C122.6 85.4779 123.333 86.2107 123.887 87.0513C124.922 88.5313 125.612 90.1695 126.122 91.9155C126.51 93.2951 126.913 94.6172 127.265 96.0183C127.445 96.6434 127.517 97.3332 127.661 97.9799C127.747 98.3679 127.704 98.7847 127.963 99.2158C128.157 98.8062 128.301 98.4756 128.423 98.1091C128.875 96.6647 129.292 95.2419 129.708 93.819C130.275 91.9148 131.058 90.1254 132.014 88.3791C132.244 87.9479 132.308 87.5671 132.236 87.1216C132.1 86.324 131.869 85.5336 131.295 84.9014C130.942 84.4775 130.59 84.0536 130.152 83.7304C128.549 82.4444 127.5 80.7776 126.644 78.9454C126.421 78.4928 126.069 78.0689 125.739 77.6809C125.307 77.2067 124.797 77.1709 124.302 77.5662C124.036 77.7746 123.813 78.0549 123.648 78.3496C123.447 78.6658 123.36 79.0107 123.217 79.3413C122.815 80.4623 122.412 81.5833 122.046 82.6828C121.802 83.1715 121.694 83.7248 121.529 84.2637ZM150.609 83.1301C149.783 82.8931 149.129 83.1879 148.568 83.7197C147.599 84.5462 146.686 85.3871 145.795 86.2639C145.465 86.6089 145.091 86.882 144.761 87.227C144.258 87.7732 143.698 88.3051 143.511 89.0524C143.224 90.2021 142.786 91.3447 142.247 92.4011C141.119 94.5929 139.934 96.7704 138.749 98.9479C137.563 101.125 136.572 103.382 135.969 105.796C135.926 105.969 135.883 106.141 135.876 106.292C135.984 106.227 136.034 106.148 136.048 106.091C136.616 104.675 137.377 103.339 138.217 102.052C139.898 99.4794 142.176 97.5748 145.086 96.5611C146.128 96.18 147.148 95.7631 148.211 95.418C149.052 95.1088 149.627 94.5195 149.943 93.7434C150.165 93.2188 150.331 92.6798 150.438 92.1265C150.79 90.3516 151.106 88.5983 151.4 86.809C151.522 86.1982 151.529 85.5587 151.536 84.9192C151.5 84.2078 151.263 83.5683 150.609 83.1301ZM118.581 110.37C117.783 108.796 116.755 107.409 115.691 106.044C114.153 104.133 112.321 102.546 110.265 101.238C108.188 99.8949 105.918 98.9612 103.726 97.8335C102.023 96.95 100.255 96.203 98.6809 95.0464C98.4007 94.8237 98.0701 94.6801 97.7395 94.5364C97.5455 94.4574 97.3515 94.3784 97.1215 94.321C96.2233 94.1271 95.7563 94.6518 96.0655 95.4924C96.3387 96.3546 96.8418 97.03 97.4024 97.7197C99.2495 99.9828 101.42 101.808 104.072 103.05C105.847 103.891 107.722 104.573 109.548 105.334C110.403 105.7 111.308 105.988 112.163 106.354C114.456 107.324 116.533 108.667 118.437 110.212C118.444 110.305 118.502 110.319 118.581 110.37ZM104.157 97.5747C104.142 97.6322 104.128 97.6897 104.114 97.7472C104.272 97.8478 104.408 97.9124 104.567 98.013C105.659 98.5301 106.751 99.0473 107.808 99.586C110.136 100.778 112.328 102.15 114.16 103.982C115.562 105.34 116.755 106.921 117.84 108.566C118.099 108.997 118.358 109.428 118.617 109.859C118.66 109.687 118.652 109.594 118.624 109.464C117.883 107.172 117.121 104.844 116.381 102.552C116.129 101.726 115.683 101.065 114.965 100.519C114.224 99.9369 113.448 99.3766 112.543 99.0893C111.501 98.7374 110.423 98.4071 109.338 98.2277C107.584 97.9118 105.881 97.7612 104.157 97.5747ZM149.081 95.4825C149.059 95.4465 149.038 95.4106 149.016 95.3747C148.599 95.576 148.161 95.7413 147.744 95.9426C146.703 96.3236 145.625 96.7262 144.583 97.1073C143.139 97.6321 141.925 98.4587 140.782 99.4864C139.59 100.593 138.656 101.887 137.787 103.288C136.702 105.063 135.969 107.018 135.201 108.994C135.136 109.131 135.129 109.281 135.108 109.49C135.179 109.447 135.179 109.447 135.215 109.425C135.266 109.346 135.28 109.289 135.352 109.245C136.673 106.644 138.577 104.524 140.783 102.662C142.09 101.584 143.499 100.592 144.849 99.5862C146.02 98.6878 147.17 97.7535 148.176 96.6611C148.521 96.2586 148.772 95.8634 149.081 95.4825ZM125.562 91.4701C125.576 91.4126 125.59 91.3551 125.569 91.3192C125.001 89.5589 124.217 87.9279 123.089 86.455C121.673 84.6661 120.07 83.1359 117.979 82.0943C117.102 81.6921 116.305 81.0958 115.457 80.5786C115.399 80.5643 115.32 80.514 115.148 80.4709C115.73 81.4409 116.226 82.2671 116.743 83.1293C116.937 83.4526 117.11 83.74 117.34 84.0418C118.095 85.0548 119.094 85.8235 120.143 86.5131C120.854 86.9656 121.58 87.3607 122.22 87.8564C123.492 88.7544 124.627 89.832 125.375 91.2402C125.418 91.3121 125.497 91.3624 125.562 91.4701ZM126.22 77.5874C126.184 77.609 126.184 77.609 126.17 77.6665C126.256 77.8102 126.342 77.9539 126.407 78.0616C126.774 78.6723 127.176 79.2615 127.471 79.9153C127.902 80.8781 128.549 81.7115 129.282 82.4443C130.137 83.2992 131.222 83.9673 131.833 85.0666C131.862 84.9516 131.855 84.8582 131.848 84.7648C131.452 83.7804 131.079 82.832 130.611 81.8908C130.252 81.1292 129.663 80.5544 129.016 79.9653C128.29 79.3259 127.578 78.6291 126.888 77.9681C126.673 77.8532 126.457 77.7383 126.22 77.5874Z" fill="white"/>
<path d="M112.568 77.7195C113.049 78.1146 113.243 78.6822 113.402 79.2714C114.279 82.1167 115.156 84.9621 115.997 87.829C116.558 89.7402 117.083 91.6731 117.586 93.57C117.594 93.6634 117.622 93.7927 117.594 93.9077C117.443 93.4119 117.292 92.9161 117.141 92.4204C115.854 88.1595 114.545 83.8628 113.258 79.602C113.057 78.9409 112.784 78.323 112.568 77.7195Z" fill="white"/>
<path d="M127.141 116.325C126.242 115.153 125.445 113.824 124.754 112.43C123.044 109.01 122.159 105.339 121.533 101.609C121.397 100.812 121.238 99.9784 121.209 99.1161C121.339 99.8203 121.468 100.524 121.655 101.243C122.065 103.391 122.475 105.54 123.108 107.652C123.604 109.211 124.158 110.785 124.891 112.251C125.638 113.659 126.422 115.046 127.141 116.325Z" fill="white"/>
<path d="M135.387 101.894C135.344 102.066 135.323 102.275 135.279 102.447C134.992 103.841 134.684 105.2 134.454 106.608C134.095 108.534 133.794 110.474 133.435 112.4C133.255 113.485 132.961 114.541 132.472 115.518C132.214 116.065 131.876 116.561 131.33 117.035C131.395 116.898 131.352 116.826 131.423 116.783C132.4 115.562 132.91 114.132 133.19 112.644C133.456 111.214 133.643 109.734 133.908 108.304C134.332 106.242 134.791 104.158 135.251 102.074C135.265 102.016 135.279 101.959 135.33 101.88C135.33 101.88 135.366 101.858 135.387 101.894Z" fill="white"/>
<path d="M124.152 116.555C123.591 116.354 123.217 115.894 122.901 115.449C121.191 113.25 120.242 110.693 119.53 108.041C119.221 106.956 118.983 105.828 118.746 104.7C118.739 104.607 118.731 104.513 118.782 104.434C119.012 105.225 119.206 106.036 119.436 106.827C119.882 108.465 120.306 110.067 120.989 111.612C121.801 113.373 122.65 115.111 124.144 116.462C124.144 116.462 124.13 116.519 124.152 116.555Z" fill="white"/>
<path d="M131.814 93.0932C131.814 93.0932 131.792 93.0572 131.828 93.0357C132.791 89.4283 134.026 85.9502 135.937 82.702C136.504 81.7749 137.251 80.9844 137.898 80.1076C137.912 80.0501 138.006 80.0429 138.099 80.0357C138.049 80.1148 138.02 80.2298 137.948 80.2729C135.929 82.6086 134.636 85.3394 133.559 88.1851C133.265 88.9971 132.934 89.8307 132.64 90.6427C132.396 91.3757 132.187 92.0871 131.979 92.7985C131.95 92.9135 131.9 92.9925 131.814 93.0932Z" fill="white"/>
<path d="M122.508 88.4167C122.745 88.8118 123.018 89.1854 123.219 89.6022C124.003 91.2331 124.564 92.9001 125.038 94.6677C125.549 96.658 126.023 98.6699 126.369 100.711C126.383 100.897 126.419 101.12 126.433 101.307C125.908 99.1298 125.419 96.9311 124.837 94.7396C124.276 92.584 123.492 90.4644 122.4 88.4814C122.436 88.4598 122.472 88.4382 122.508 88.4167Z" fill="white"/>
<path d="M129.496 104.942C128.836 108.808 128.247 112.631 129.297 116.496C129.261 116.518 129.203 116.504 129.168 116.525C129.06 116.101 128.916 115.699 128.83 115.311C128.405 112.976 128.434 110.662 128.8 108.341C128.993 107.198 129.151 106.077 129.345 104.935C129.403 104.949 129.438 104.928 129.496 104.942Z" fill="white"/>
<path d="M129.887 87.359C129.852 90.5566 129.968 93.7614 129.156 96.8873C129.099 96.8729 129.041 96.8586 129.005 96.8801C129.17 95.8525 129.371 94.8034 129.501 93.7974C129.623 92.698 129.673 91.6417 129.701 90.5495C129.751 89.4932 129.801 88.4369 129.851 87.3806C129.83 87.3447 129.83 87.3447 129.887 87.359Z" fill="white"/>
<path d="M110.836 77.4393C111.009 78.9482 111.117 80.3494 111.319 81.7434C111.52 83.1374 111.872 84.5385 112.117 85.76C111.355 84.1649 110.384 78.6394 110.836 77.4393Z" fill="white"/>
<path d="M135.709 92.1721C134.079 95.8874 132.47 99.6386 131.594 103.634C131.443 102.405 133.626 96.3545 135.709 92.1721Z" fill="white"/>
<path d="M127.869 87.9842C127.494 84.837 127.307 81.6753 126.451 78.6216C126.487 78.6 126.523 78.5785 126.559 78.5569C126.645 78.7006 126.732 78.8443 126.746 79.0311C126.969 80.2167 127.285 81.3951 127.473 82.6022C127.703 84.3699 127.84 86.1447 127.998 87.9554C127.962 87.977 127.926 87.9985 127.869 87.9842Z" fill="white"/>
<path d="M115.838 82.3532C116.722 82.8488 118.764 89.0999 118.915 90.8173C118.635 89.8616 118.376 88.9419 118.024 88.0294C117.513 86.5277 116.967 85.0476 116.442 83.6034C116.277 83.1651 116.04 82.7699 115.838 82.3532Z" fill="white"/>
<path d="M117.748 106.863C117.647 106.777 117.525 106.655 117.46 106.547C116.756 105.455 115.771 104.629 114.7 103.903C113.709 103.228 112.681 102.574 111.689 101.899C111.61 101.849 111.531 101.798 111.488 101.727C112.767 102.229 113.867 103.084 115.016 103.86C116.166 104.636 117.194 105.534 117.855 106.798C117.855 106.798 117.783 106.842 117.748 106.863Z" fill="white"/>
<path d="M106.407 97.7393C109.497 98.0836 112.112 99.5921 114.599 101.374C113.284 100.648 111.969 99.9226 110.639 99.2546C109.288 98.5507 107.844 98.0983 106.407 97.7393Z" fill="white"/>
<path d="M148.426 88.6921C146.537 91.9763 144.303 94.93 141.99 97.8334C144.145 94.8294 146.278 91.7895 148.426 88.6921Z" fill="white"/>
<path d="M142.964 84.3964C143.08 85.6467 142.85 86.8108 142.512 88.0396C142.074 89.6708 141.385 91.2087 140.638 92.7322C140.573 92.8687 140.473 93.0268 140.35 93.149C141.579 90.3104 142.85 87.5438 142.964 84.3964Z" fill="white"/>
<path d="M137.442 103.202C138.9 99.9321 140.438 96.7127 142.801 93.9745C140.596 96.8132 139.059 100.033 137.442 103.202Z" fill="white"/>
<path d="M138.337 87.0272C138.431 86.7757 138.56 86.5026 138.653 86.2511C139.436 84.706 140.219 83.161 141.024 81.6518C141.153 81.3787 141.318 81.0841 141.685 80.9619C140.564 83.0028 139.479 85.0222 138.395 87.0415C138.395 87.0415 138.373 87.0056 138.337 87.0272Z" fill="white"/>
<path d="M126.084 117.741C125.948 117.676 125.79 117.575 125.653 117.511C124.819 116.936 124.18 116.196 123.662 115.334C122.972 114.184 122.411 113.006 121.959 111.763C121.93 111.634 121.901 111.504 121.843 111.246C122.088 111.734 122.268 112.115 122.447 112.496C122.85 113.329 123.274 114.199 123.712 115.01C124.237 115.966 124.956 116.756 125.833 117.403C125.933 117.489 126.034 117.575 126.135 117.662C126.156 117.697 126.12 117.719 126.084 117.741Z" fill="white"/>
<path d="M123.412 79.1759C123.369 79.3484 123.254 79.564 123.246 79.7149C123.232 80.5053 123.218 81.2957 123.276 82.043C123.427 83.2717 123.614 84.4789 123.765 85.7076C123.772 85.801 123.801 85.9303 123.794 86.0812C123.075 84.558 122.686 80.0024 123.16 78.8382C123.225 78.946 123.304 78.9963 123.347 79.0681C123.426 79.1184 123.426 79.1184 123.412 79.1759Z" fill="white"/>
<path d="M126.658 109.822C126.327 107.48 125.96 105.159 125.643 102.759C126.038 103.743 126.902 109.089 126.658 109.822Z" fill="white"/>
<path d="M144.97 88.4696C145.48 87.7725 145.976 87.1329 146.508 86.4717C146.917 85.9328 147.283 85.3219 147.794 84.8691C148.569 84.2079 149.123 83.3383 150.085 82.907C150.085 82.907 150.143 82.9214 150.2 82.9357C150.042 83.0795 149.92 83.2017 149.798 83.3238C149.374 83.676 148.907 83.9563 148.562 84.3588C147.851 85.1278 147.219 85.9471 146.565 86.7304C146.084 87.3125 145.567 87.9162 145.107 88.5343C145.049 88.5199 144.992 88.5056 144.97 88.4696Z" fill="white"/>
<path d="M120.899 94.3666C121.475 96.9533 121.992 99.5256 122.309 102.17C121.791 99.5975 121.252 96.9892 120.77 94.3953C120.806 94.3738 120.842 94.3522 120.899 94.3666Z" fill="white"/>
<path d="M147.759 94.4195C148.858 92.587 149.957 90.7545 151.056 88.9219C151.042 89.7123 149.009 93.0828 147.759 94.4195Z" fill="white"/>
<path d="M130.384 90.8727C130.426 88.5014 130.584 86.1589 130.081 83.7734C130.282 83.9458 130.318 84.1685 130.332 84.3554C130.419 85.232 130.562 86.123 130.591 86.9852C130.656 88.3146 130.585 89.5792 130.384 90.8727Z" fill="white"/>
<path d="M136.708 95.8729C135.781 98.2372 134.927 100.558 134.396 103.174C134.244 102.19 135.652 97.7773 136.708 95.8729Z" fill="white"/>
<path d="M123.412 79.1755C123.412 79.1755 123.426 79.118 123.405 79.0821C123.419 78.7803 123.491 78.4928 123.505 78.191C123.541 78.1695 123.598 78.1838 123.598 78.1838C123.613 78.3707 123.663 78.5359 123.642 78.7443C123.663 80.0018 123.721 81.2377 123.743 82.4952C123.75 82.8329 123.793 83.1491 123.743 83.4724C123.7 83.1563 123.599 82.8257 123.592 82.488C123.52 81.5539 123.47 80.6557 123.419 79.7575C123.455 79.4916 123.405 79.3264 123.412 79.1755Z" fill="white"/>
<path d="M151.53 84.5811C151.487 84.7536 151.466 84.962 151.401 85.0985C150.575 86.5717 149.713 88.0665 148.887 89.5397C148.887 89.5397 148.851 89.5613 148.829 89.5254C149.734 87.8581 150.603 86.2125 151.53 84.5811C151.53 84.5811 151.494 84.6027 151.53 84.5811Z" fill="white"/>
<path d="M113.996 102.322C115.261 102.883 117.467 104.93 117.805 105.9C117.129 105.182 116.59 104.528 116.001 103.953C115.354 103.364 114.657 102.854 113.996 102.322Z" fill="white"/>
<path d="M137.769 82.5788C138.358 81.199 139.048 79.9055 139.896 78.7125C139.953 78.7269 139.975 78.7628 140.032 78.7771C139.285 80.0563 138.538 81.3355 137.769 82.5788Z" fill="white"/>
<path d="M111.505 77.3313C111.591 78.6966 111.656 80.0259 111.779 81.3696C111.376 80.0475 111.383 78.6751 111.296 77.3098C111.39 77.3026 111.447 77.317 111.505 77.3313Z" fill="white"/>
<path d="M140.564 84.2242C140.88 83.2038 141.879 81.5294 142.367 81.285C141.714 82.3126 141.11 83.2612 140.564 84.2242Z" fill="white"/>
<path d="M150.546 83.2665C149.691 84.1218 148.821 85.0345 147.966 85.8898C147.945 85.8539 147.945 85.8539 147.887 85.8395C148.268 85.4155 148.685 84.9699 149.044 84.51C149.338 84.1865 149.576 83.8488 149.892 83.5613C150.05 83.4175 150.287 83.3241 150.466 83.2163C150.524 83.2306 150.546 83.2665 150.546 83.2665Z" fill="white"/>
<path d="M149.34 92.9816C149.749 92.1983 150.216 91.4293 150.625 90.646C150.683 90.6604 150.705 90.6963 150.762 90.7107C150.432 91.5443 149.907 92.2989 149.419 93.0319C149.383 93.0535 149.361 93.0175 149.34 92.9816Z" fill="white"/>
<path d="M128.116 110.217C128.174 109.254 128.288 108.305 128.346 107.343C128.403 107.357 128.403 107.357 128.461 107.371C128.403 108.334 128.289 109.283 128.231 110.246C128.21 110.21 128.174 110.231 128.116 110.217Z" fill="white"/>
<path d="M140.442 78.971C140.054 79.5459 139.724 80.1352 139.336 80.7101C139.566 80.0346 139.874 79.4094 140.305 78.9063C140.384 78.9566 140.442 78.971 140.442 78.971Z" fill="white"/>
<path d="M129.775 103.455C129.689 103.8 129.624 104.18 129.538 104.525C129.624 104.18 129.746 103.814 129.833 103.469C129.833 103.469 129.811 103.433 129.775 103.455Z" fill="white"/>
<path d="M131.85 93.0716C131.785 93.4524 131.699 93.7974 131.634 94.1782C131.577 94.1638 131.52 94.1495 131.462 94.1351C131.584 93.7686 131.728 93.4381 131.85 93.0716Z" fill="white"/>
<path d="M137.464 145.655C137.356 145.475 137.234 145.353 137.126 145.173C135.667 142.824 134.244 140.453 132.749 138.125C131.254 135.797 130.161 133.326 129.464 130.617C129.119 129.309 129.068 127.922 129.133 126.564C129.132 126.32 129.226 126.068 129.226 125.824C129.341 124.387 129.189 122.914 128.801 121.534C128.686 121.017 128.643 120.456 128.564 119.917C128.535 119.788 128.6 119.652 128.571 119.522C128.607 119.501 128.664 119.515 128.7 119.493C128.75 119.659 128.837 119.802 128.83 119.953C129.024 121.01 129.124 122.073 129.355 123.108C129.635 124.308 129.535 125.443 129.456 126.614C129.377 127.786 129.428 128.928 129.665 130.056C129.996 131.666 130.528 133.203 131.225 134.691C131.901 136.142 132.684 137.529 133.576 138.851C134.898 140.891 136.149 142.975 137.435 145.037C137.565 145.252 137.802 145.403 137.464 145.655Z" fill="white"/>
<path d="M41.8745 72.703C41.6014 72.5737 41.4289 72.5306 41.2565 72.4876C39.4815 71.8915 37.7999 71.0439 36.2189 70.0382C34.5732 68.9248 32.9993 67.7682 31.6984 66.2523C31.0156 65.4404 30.4981 64.5782 30.1027 63.5939C29.5204 62.1353 28.9381 60.6767 28.4636 59.1535C28.2119 58.3272 28.1112 57.508 27.9888 56.653C27.96 56.2793 27.9671 55.8841 28.0533 55.5392C28.1969 54.72 28.7285 54.3031 29.5692 54.2383C30.0004 54.2239 30.4171 54.2669 30.8339 54.3099C31.919 54.4894 33.0112 54.5179 34.0962 54.453C34.2471 54.4602 34.3764 54.4314 34.5633 54.417C34.3979 53.9787 34.2541 53.5764 34.1103 53.174C33.5567 51.3561 33.3983 49.5454 33.7644 47.713C34.0516 46.3189 34.849 45.205 35.9841 44.3282C36.4798 43.9329 36.9756 43.5375 37.4713 43.1422C38.4987 42.3301 39.598 41.7191 40.8698 41.3955C41.0351 41.3452 41.2219 41.3308 41.4087 41.3164C43.4781 41.1004 45.3393 41.5959 47.0568 42.6662C47.5311 42.9679 48.027 43.3055 48.451 43.6863C48.875 44.0671 49.2631 44.4694 49.6728 44.9076C49.6943 44.6992 49.7158 44.4908 49.7374 44.2824C49.8306 43.298 49.9813 42.3279 50.3261 41.4368C50.5918 40.7398 50.9581 40.1289 51.6048 39.7408C51.8922 39.5683 52.1868 39.4892 52.5461 39.7622C52.6035 39.5322 52.625 39.3238 52.6681 39.1514C52.7614 38.6556 53.0201 38.3537 53.5159 38.2027C54.5433 37.8792 55.4416 38.073 56.3111 38.6261C56.9436 39.0284 57.4395 39.6104 57.8779 40.1779C59.1141 41.8304 60.1205 43.6697 61.0693 45.4947C62.1332 47.5927 62.7228 49.8776 63.0897 52.1985C63.5141 54.778 63.5793 57.3289 63.1199 59.9014C62.9333 60.8931 62.5957 61.8776 62.3516 62.8549C62.3085 63.0273 62.2439 63.1639 62.1721 63.4513C62.3661 63.286 62.4379 63.2429 62.5241 63.1423C63.7813 61.6546 64.9451 60.1742 65.9436 58.4997C66.1591 58.126 66.2453 57.7811 66.2308 57.35C66.1874 56.0566 66.1082 54.7847 66.3882 53.5416C66.5676 52.7008 66.7399 51.7667 67.0344 50.9546C67.4869 49.7545 68.3633 48.9352 69.5058 48.3961C69.9943 48.1517 70.4758 48.3025 70.9357 48.6617C71.4963 49.1071 71.8413 49.6819 71.9851 50.3286C72.1218 50.8818 72.28 51.471 72.2873 52.053C72.2088 54.9345 72.1303 57.8159 71.714 60.7046C71.5418 61.8831 71.1755 62.9826 70.7159 64.0892C69.8612 66.166 68.4244 67.7615 66.5276 68.9978C64.7386 70.1694 62.7627 70.8668 60.6358 71.0684C60.5065 71.0971 60.3555 71.09 60.2621 71.0972C60.2262 71.1187 60.1903 71.1403 60.1544 71.1619C60.1975 71.2337 60.2406 71.3056 60.2837 71.3774C61.3259 72.4622 61.7644 73.7627 61.7288 75.2502C61.7219 76.6226 61.3341 77.9305 60.7307 79.1234C60.2423 80.1007 59.6748 81.0278 59.1648 81.9692C58.6189 82.9322 57.7208 83.4713 56.6933 83.7948C56.0897 84.0105 55.4215 84.1184 54.8107 84.2407C54.1066 84.3701 53.3808 84.4637 52.6335 84.5213C52.0731 84.5645 51.4551 84.5934 50.909 84.5791C49.7018 84.5219 48.9975 83.9184 48.5374 82.582C48.2929 81.8491 48.3647 81.073 48.6304 80.376C48.932 79.6573 49.2912 78.9531 49.6144 78.2704C49.6791 78.1339 49.7796 77.9758 49.8155 77.7099C49.6718 77.7961 49.4706 77.868 49.3269 77.9543C48.2708 78.6371 47.1643 79.1547 45.9643 79.4352C44.4914 79.8307 42.9609 80.2118 41.4232 80.4995C39.1096 80.9598 36.7887 81.571 34.5326 82.29C33.9075 82.4698 33.2249 82.6351 32.5925 82.7215C32.2764 82.7647 31.8812 82.7576 31.5937 82.6858C31.0404 82.5781 30.8032 82.1829 31.0259 81.6583C31.1839 81.2703 31.3994 80.8966 31.6724 80.5372C32.3908 79.6173 33.1523 78.7693 33.8491 77.8135C35.0057 76.2396 36.4354 75.0394 38.1526 74.1552C39.1441 73.6089 40.1644 73.192 41.2494 72.8828C41.4362 72.8684 41.5799 72.7821 41.8745 72.703ZM55.9218 69.8908C55.7348 68.6836 55.289 67.534 54.6996 66.4707C54.0814 65.278 53.3195 64.1715 52.4499 63.1298C51.5587 62.0521 50.61 60.9601 49.5248 60.0477C48.1593 58.9126 46.607 58.0363 45.0045 57.239C41.7419 55.63 38.3789 54.6678 34.7358 54.7044C33.2124 54.6903 31.6891 54.6762 30.1729 54.5112C28.8435 54.3319 28.2903 54.7128 28.2187 56.2218C28.2115 56.3727 28.226 56.5595 28.2188 56.7104C28.3267 57.3787 28.3771 58.0325 28.5785 58.6936C29.0674 60.1593 29.6137 61.6395 30.1386 63.0837C30.6346 64.3986 31.3246 65.5481 32.3236 66.5611C34.4438 68.7092 36.9375 70.3399 39.6827 71.5753C42.4062 72.7748 45.2087 73.2916 48.1691 72.9318C50.2529 72.6583 52.236 72.0544 54.0969 71.084C54.8585 70.7245 55.4764 70.4514 55.9218 69.8908ZM52.2515 39.8413C51.5473 39.9707 51.0444 40.5169 51.0015 41.178C50.8939 42.22 51.0665 43.2403 51.2032 44.2822C51.5198 46.1935 51.556 48.1264 51.2331 50.0307C51.0249 51.2307 50.6658 52.4236 50.3643 53.6308C50.1776 54.3781 50.0627 55.0824 50.1204 55.8297C50.3004 57.9206 50.9547 59.8247 51.961 61.664C52.5289 62.6915 53.2547 63.5752 53.8945 64.5595C54.9151 66.097 55.7346 67.7064 56.1157 69.4812C56.1445 69.6105 56.2092 69.7183 56.2739 69.8261C57.014 69.675 57.5456 69.2581 58.0557 68.8054C60.6206 66.4839 62.0859 63.5519 62.7679 60.2105C63.2632 57.8607 63.2269 55.4392 62.9318 53.0752C62.5359 49.6477 61.4647 46.479 59.6965 43.5333C59.0496 42.4556 58.4027 41.3778 57.648 40.3648C57.2886 39.8475 56.7999 39.359 56.2825 38.9854C55.5638 38.4395 54.7374 38.2025 53.7961 38.4254C53.2069 38.5836 53.013 38.7489 52.9484 39.3741C52.891 39.8483 52.927 40.3154 52.8696 40.7897C52.8625 40.9406 52.8194 41.113 52.8122 41.2639C52.7548 41.2496 52.7188 41.2711 52.6613 41.2568C52.4241 40.8616 52.6539 40.1861 52.2515 39.8413ZM51.3358 61.3552C51.3717 61.3336 51.4076 61.312 51.4435 61.2905C51.1488 60.6366 50.8541 59.9828 50.6312 59.2858C49.4522 56.1819 49.1282 52.9556 49.4941 49.6573C49.6232 48.407 49.6948 47.1423 49.8023 45.8561C49.8023 45.6118 49.7448 45.3531 49.6154 45.1376C49.4644 44.8861 49.2416 44.6777 49.0763 44.4838C47.5814 42.8888 45.6699 41.9838 43.5141 41.5675C42.6159 41.3736 41.7033 41.4816 40.8196 41.7189C39.6412 42.0353 38.6137 42.6031 37.6798 43.4081C37.184 43.8034 36.7242 44.1771 36.2285 44.5724C35.2011 45.3846 34.4109 46.3476 34.1596 47.7201C33.8223 49.6818 33.9879 51.586 34.6206 53.4541C34.7212 53.7847 34.9153 54.108 35.0519 54.4169C35.3178 54.4528 35.5046 54.4384 35.713 54.4599C38.0699 54.5601 40.355 54.9477 42.5683 55.867C43.6534 56.2907 44.7026 56.7361 45.7374 57.2389C47.5556 58.1511 49.2013 59.2646 50.6818 60.6727C50.883 60.8451 51.0914 61.1109 51.3358 61.3552ZM58.6758 80.0148C58.8195 79.9285 58.9416 79.8064 59.0853 79.7201C60.0768 78.9295 60.7089 77.8659 61.147 76.7233C61.7647 75.2286 61.556 73.7412 60.7941 72.3905C59.9531 70.9894 58.5662 70.3071 56.9709 70.0918C56.3817 70.0057 55.6273 70.4585 55.4765 70.94C55.2467 71.8598 54.6648 72.6 54.1979 73.369C53.5801 74.3751 52.7611 75.2087 51.9637 76.0784C51.5973 76.4449 51.1303 76.7252 50.807 77.1636C50.0743 78.141 49.4421 79.2046 49.0256 80.3831C48.7958 81.0586 48.6666 81.8203 48.8895 82.5172C49.1627 83.3795 49.6442 84.0189 50.6143 84.1696C51.8503 84.3562 52.8778 84.0326 53.7974 83.2852C54.365 82.8467 54.8319 82.3221 55.3205 81.8334C55.7731 81.3663 56.3263 80.9853 56.9298 80.7696C57.5478 80.4964 58.0938 80.2664 58.6758 80.0148ZM63.5458 70.0546C63.711 70.0043 63.8763 69.954 64.0415 69.9036C64.954 69.5514 65.7803 69.0554 66.6209 68.502C68.2303 67.4382 69.4372 66.0296 70.2417 64.2761C71.0318 62.5802 71.441 60.8196 71.5988 58.9657C71.7421 57.1693 71.8496 55.3944 71.9211 53.6411C71.9785 52.9225 72.0142 52.1681 71.9422 51.4783C71.8486 50.5082 71.6042 49.531 70.7633 48.8629C70.2603 48.4319 69.901 48.4032 69.3262 48.7482C68.4281 49.2873 67.7312 49.9988 67.3577 51.0049C66.7688 52.6289 66.4458 54.2889 66.5036 56.0134C66.5254 57.2709 66.6406 58.5211 66.6983 59.7571C66.8279 61.1942 66.7132 62.6313 66.4836 64.0397C66.218 65.4697 65.7943 66.7991 65.0831 68.0567C64.7671 68.8328 64.1923 69.4222 63.5458 70.0546ZM55.0526 71.0479C54.0539 71.5007 53.1126 71.968 52.1426 72.3059C49.362 73.2908 46.5309 73.6219 43.6494 73.0548C42.7727 72.8968 41.9895 72.976 41.1416 73.1918C40.847 73.2709 40.574 73.3859 40.3369 73.4793C38.7634 74.0329 37.5204 74.9745 36.6512 76.3758C36.4142 76.7136 36.2562 77.1017 36.0191 77.4394C35.5593 78.0575 35.1211 78.7114 34.5823 79.2792C34.1297 79.7464 33.5118 80.0195 32.9801 80.4364C32.5706 80.7311 32.1467 81.0833 31.7588 81.4139C31.4929 81.6223 31.4211 81.9097 31.45 82.2834C31.9961 82.542 32.5638 82.5922 33.1601 82.2831C34.7121 81.4492 35.9909 80.2418 37.3272 79.0488C38.6635 77.8557 40.1938 76.9859 41.983 76.7916C43.1542 76.6261 44.3327 76.554 45.4895 76.446C46.7398 76.3308 48.0116 76.2515 49.2763 76.0789C50.7062 75.8558 51.9779 75.2879 53.0268 74.2674C53.8458 73.4337 54.4277 72.4492 54.988 71.4287C54.9808 71.3353 55.0095 71.2203 55.0526 71.0479ZM57.4523 69.754C57.9553 69.9407 58.4584 70.1275 58.947 70.3717C59.4357 70.6159 59.8597 70.9966 60.4345 70.6516C60.4704 70.6301 60.5495 70.6803 60.607 70.6947C61.4117 70.6514 62.2093 70.5148 62.8919 70.1051C63.8762 69.4653 64.5802 68.603 65.083 67.5681C65.4206 66.8279 65.7223 66.1093 65.9449 65.3404C66.505 63.3427 66.6124 61.3235 66.418 59.2901C66.4036 59.1032 66.3676 58.8805 66.3244 58.5643C66.188 58.744 66.1377 58.823 66.0515 58.9236C65.4408 59.7789 64.8518 60.67 64.2196 61.4893C63.5874 62.3085 62.9337 63.0919 62.2368 63.8034C61.9063 64.1484 61.6334 64.5077 61.4035 64.9389C60.7858 66.1893 59.9884 67.3032 59.0113 68.2806C58.5012 68.7334 57.9768 69.2437 57.4523 69.754ZM33.9721 82.0889C33.9936 82.1248 33.9936 82.1248 33.9793 82.1823C34.0368 82.1967 34.0727 82.1751 34.1302 82.1895C34.2595 82.1607 34.3888 82.1319 34.4966 82.0672C36.8246 81.3051 39.2173 80.6508 41.6459 80.2192C42.9609 79.9675 44.2326 79.6439 45.5044 79.3203C45.9643 79.1909 46.3738 78.8962 46.8193 78.8242C47.2648 78.7523 47.6815 78.551 48.0623 78.3713C48.7665 77.9975 49.4347 77.6453 50.0741 77.1637C50.6992 76.7397 51.2595 76.2078 51.8415 75.7119C51.9492 75.6472 51.978 75.5322 52.0283 75.4532C51.4463 75.7048 50.8643 75.9564 50.2966 76.1505C49.0895 76.5819 47.7602 76.6468 46.5099 76.762C44.886 76.906 43.2765 76.9926 41.6382 77.1941C40.1508 77.4027 38.8647 78.0281 37.7224 79.0559C36.968 79.753 36.1705 80.3783 35.3946 81.0395C35.0067 81.3701 34.4894 81.7295 33.9721 82.0889ZM53.237 84.0613C54.1784 84.0827 55.9388 83.759 56.7076 83.493C57.8788 83.0832 58.7625 82.3573 59.2581 81.2291C59.373 81.0135 59.5095 80.8338 59.6244 80.6182C59.9692 79.9715 60.3284 79.2672 60.6731 78.6204C60.5582 78.5917 60.5222 78.6133 60.4863 78.6348C59.7608 79.7056 58.798 80.3812 57.5909 80.8126C56.858 81.0571 56.1683 81.3734 55.651 81.977C54.9398 82.746 54.1854 83.4432 53.237 84.0613ZM49.8399 54.3854C50.0409 53.5806 50.2779 52.7542 50.4574 51.9134C51.118 49.5133 51.2684 47.0774 50.9302 44.6415C50.8079 43.7864 50.7575 42.8883 50.6567 42.0691C50.6351 42.0332 50.6136 41.9973 50.5633 41.832C50.4915 42.1194 50.3909 42.2775 50.3694 42.4859C50.2474 43.341 50.1254 44.1961 50.0609 45.0656C49.939 46.6537 49.8531 48.2201 49.7097 49.7723C49.6666 50.189 49.6236 50.6058 49.6165 51.001C49.6095 52.1292 49.6025 53.2573 49.8399 54.3854ZM32.0891 80.5803L32.1107 80.6162C32.6136 80.3143 33.1166 80.0124 33.5405 79.6602C33.95 79.3656 34.4314 79.0277 34.7403 78.6469C35.5377 77.5329 36.256 76.3687 36.9959 75.2404C36.687 75.377 36.3636 75.5711 36.1553 75.7939C35.559 76.3473 34.9268 76.9223 34.3736 77.5475C33.648 78.374 33.0374 79.2292 32.3549 80.1275C32.3119 80.3 32.1897 80.4222 32.0891 80.5803Z" fill="white"/>
<path d="M49.4346 73.0032C48.1343 74.419 46.338 75.0086 44.6495 75.7777C46.0649 74.8793 47.7534 74.3544 49.0825 73.0679C48.8741 73.0464 48.7592 73.0177 48.6657 73.0249C46.7975 73.169 45.0729 72.7382 43.4129 71.9265C40.833 70.6408 38.5764 68.9166 36.3988 66.9985C36.0969 66.7399 35.8526 66.4956 35.5507 66.237C35.5292 66.201 35.5076 66.1651 35.5004 66.0717C35.9819 66.4668 36.4059 66.8476 36.8659 67.2068C38.8925 68.8734 40.9695 70.4611 43.3553 71.6678C45.0944 72.5298 46.8981 73.0109 48.8813 72.8955C49.0681 72.8811 49.219 72.8883 49.4274 72.9098C49.3915 72.9313 49.413 72.9673 49.4346 73.0032Z" fill="white"/>
<path d="M32.3011 59.6841C34.8023 62.6297 37.6339 65.2304 40.7098 67.5867C41.8094 68.4416 42.9592 69.2174 44.145 69.9717C45.4888 70.8265 46.9045 71.3939 48.4495 71.6882C48.5069 71.7026 48.5644 71.7169 48.6435 71.7672C47.8459 71.6596 47.0626 71.4944 46.3081 71.2143C44.6624 70.5895 43.1461 69.6916 41.7303 68.6356C38.8557 66.4517 36.1032 64.1456 33.6955 61.4371C33.2211 60.8911 32.7611 60.2876 32.3011 59.6841Z" fill="white"/>
<path d="M59.0194 67.8852C61.3609 62.4237 61.87 56.8404 60.0941 51.1138C61.1582 54.189 61.6258 57.329 61.2168 60.5555C60.894 63.4369 59.7881 67.1306 59.0194 67.8852Z" fill="white"/>
<path d="M51.3577 63.3457C53.3484 65.0339 55.0589 66.9881 56.1732 69.4957C57.2434 67.0452 57.2932 64.523 57.4149 61.9577C57.7098 63.5888 57.2867 68.3386 56.1086 69.8765C55.5407 68.6048 54.9225 67.4121 54.0528 66.3703C53.1688 65.3861 52.2632 64.3659 51.3577 63.3457Z" fill="white"/>
<path d="M56.6407 69.7037C56.6694 69.5887 56.7197 69.5097 56.77 69.4306C57.8187 67.6772 58.2926 65.7801 58.4575 63.7752C58.6368 61.7129 58.5142 59.6363 58.3198 57.6028C58.3054 57.416 58.3126 57.2651 58.3341 57.0567C58.8809 60.4913 59.1042 63.8757 58.0127 67.2675C57.7541 68.058 57.3016 68.7695 56.9281 69.5312C56.8778 69.6103 56.8059 69.6534 56.7556 69.7325C56.6981 69.7181 56.6766 69.6822 56.6407 69.7037Z" fill="white"/>
<path d="M41.7501 60.854C45.5446 63.2677 48.9655 66.1987 52.3648 69.0939C48.8434 66.3209 45.3937 63.5048 41.7501 60.854Z" fill="white"/>
<path d="M46.4421 57.3536C45.939 56.9225 45.4719 56.4699 44.9329 56.0604C43.7183 55.1768 42.6762 54.092 41.7419 52.9425C40.9728 51.9869 40.2972 51.0242 39.5641 50.0471C39.1472 49.5154 38.7806 48.9047 38.45 48.2725C38.529 48.3227 38.6296 48.4089 38.7087 48.4592C39.0034 48.8688 39.2981 49.2783 39.5928 49.6878C40.7787 51.4193 42.0509 53.0502 43.517 54.5158C44.4154 55.4426 45.4359 56.2472 46.3846 57.0949C46.4061 57.1308 46.4852 57.1811 46.5283 57.2529C46.4565 57.2961 46.4421 57.3536 46.4421 57.3536Z" fill="white"/>
<path d="M36.8555 54.6538C38.1776 54.7398 44.8252 59.3014 46.2698 60.9754C44.775 59.8691 43.2227 58.7484 41.7063 57.6062C40.1756 56.5214 38.5586 55.5373 36.8555 54.6538Z" fill="white"/>
<path d="M45.3626 49.4494C48.403 53.7818 50.5522 58.0137 50.8256 59.6088C50.4231 59.264 50.3871 58.7969 50.2074 58.4161C49.8264 57.6186 49.5173 56.778 49.1004 56.002C47.8568 53.7675 46.5415 51.5761 45.3626 49.4494Z" fill="white"/>
<path d="M54.8437 66.6286C53.5928 63.3234 52.7658 59.9104 52.2909 56.4327C52.6864 58.15 53.0604 59.8313 53.5134 61.563C53.9449 63.2587 54.4697 64.9472 54.9946 66.6358C54.9371 66.6214 54.8796 66.607 54.8437 66.6286Z" fill="white"/>
<path d="M53.3847 63.7905C52.0404 60.4925 51.7164 57.022 51.4643 53.5082C51.7089 55.2184 51.8817 56.9716 52.2197 58.6746C52.5434 60.435 53.0108 62.1091 53.3847 63.7905Z" fill="white"/>
<path d="M55.2233 59.1193C54.4538 55.232 53.7057 51.3806 52.9361 47.4934C54.0362 51.28 54.6765 55.196 55.2233 59.1193Z" fill="white"/>
<path d="M28.4783 58.3627C28.5501 58.3196 28.5861 58.298 28.6795 58.2908C28.6148 58.183 28.5501 58.0753 28.4854 57.9675C28.4423 57.8956 28.4135 57.7663 28.3704 57.6945C28.4063 57.6729 28.4422 57.6513 28.4781 57.6298C29.125 58.4632 29.7575 59.3541 30.4044 60.1875L30.3685 60.2091C29.8941 59.663 29.4413 59.153 28.931 58.6285C29.7864 60.2164 30.922 61.5383 32.0432 62.9177C31.109 62.2568 28.7372 59.2824 28.4783 58.3627Z" fill="white"/>
<path d="M42.1422 41.3162C42.3578 41.4311 42.6093 41.5245 42.8105 41.6969C43.7089 42.3793 44.5353 43.1049 45.2613 43.9886C45.9225 44.7645 46.5693 45.598 47.1946 46.3954C47.554 46.9127 47.8631 47.5091 48.165 48.012C46.4041 45.6483 44.636 43.1911 42.0776 41.4527C42.0919 41.3952 42.1278 41.3737 42.1422 41.3162Z" fill="white"/>
<path d="M38.5373 53.3022C37.1718 52.4115 33.9949 47.7701 34.2965 46.8072C34.6056 47.4036 34.8572 47.9855 35.1448 48.546C35.4323 49.1064 35.7917 49.6237 36.1367 50.1985C36.5176 50.7517 36.8411 51.2906 37.258 51.8222C37.6533 52.3179 38.0845 52.7921 38.5373 53.3022Z" fill="white"/>
<path d="M34.8247 67.3074C33.2796 66.2802 29.9088 62.5371 29.5637 61.4737C30.4334 62.5154 31.2599 63.4853 32.0864 64.4552C32.9704 65.4395 33.9047 66.3447 34.8247 67.3074Z" fill="white"/>
<path d="M30.7987 54.3307C31.6899 55.164 32.3871 56.1627 33.2423 57.0176C34.0832 57.93 34.9025 58.8065 35.7219 59.683C34.6583 59.0509 30.9929 55.1426 30.7987 54.3307Z" fill="white"/>
<path d="M45.3529 73.2051C42.8452 74.0751 40.5246 75.4192 38.1248 76.4688C40.4095 75.1462 42.7734 73.8739 45.3529 73.2051Z" fill="white"/>
<path d="M54.3654 46.7822C53.6824 44.7488 53.143 42.6291 52.5319 40.5526C52.9775 40.9693 54.3364 45.6756 54.3654 46.7822Z" fill="white"/>
<path d="M65.1763 65.3618C63.3155 66.8209 61.2175 67.8847 58.8895 68.4025C58.8679 68.3666 58.8463 68.3307 58.8248 68.2948C58.9325 68.2301 59.0188 68.1295 59.1481 68.1007C61.0666 67.6333 62.8197 66.7276 64.5872 65.7643C64.7668 65.6565 64.9608 65.4912 65.1763 65.3618Z" fill="white"/>
<path d="M57.7221 50.5827C56.73 47.7086 55.7737 44.813 54.8032 41.9749C55.9031 44.7842 56.9527 47.6727 57.7221 50.5827Z" fill="white"/>
<path d="M56.4626 76.6521C56.2036 74.7552 55.8511 72.8654 55.1969 70.9614C55.4843 71.0332 55.5562 71.2343 55.6065 71.3996C56.0739 72.8294 56.3184 74.2953 56.4912 75.8042C56.5487 76.0629 56.4769 76.3503 56.4626 76.6521Z" fill="white"/>
<path d="M61.7903 54.8355C61.5816 53.3481 61.3011 51.9038 60.7978 50.4956C60.3305 49.0657 59.6979 47.6862 58.8857 46.4145C60.2584 47.8873 61.8042 52.3349 61.7903 54.8355Z" fill="white"/>
<path d="M58.8399 73.6127C59.8964 75.1287 60.6874 77.8303 60.2564 78.5777C60.2276 78.4484 60.2204 78.3549 60.2132 78.2615C60.134 77.7226 60.0693 77.1262 59.9183 76.6305C59.5732 75.5671 59.1778 74.5827 58.8399 73.6127Z" fill="white"/>
<path d="M50.0561 56.6989C49.2438 54.9386 48.4746 53.2501 47.7557 51.7269C48.7979 53.3004 50.0272 55.8367 50.0561 56.6989Z" fill="white"/>
<path d="M52.9052 74.8782C52.74 75.6615 52.539 76.4663 52.3954 77.2855C52.2519 78.1047 52.2017 78.9167 52.1156 79.7502C51.8568 78.8305 52.2874 75.8844 52.9052 74.8782Z" fill="white"/>
<path d="M39.1465 46.5839C38.6074 45.9301 38.0684 45.2763 37.6012 44.5794C37.2849 44.1339 37.3209 44.1123 37.2345 43.48L37.2704 43.4585L37.3279 43.4728C37.9173 44.5362 38.5211 45.5421 39.1465 46.5839Z" fill="white"/>
<path d="M50.1455 72.9673C49.1829 74.3759 47.8322 75.3821 46.3952 76.2446C47.6669 75.1881 49.0607 74.2537 50.1455 72.9673Z" fill="white"/>
<path d="M60.3993 73.6048C59.8674 72.8001 59.393 72.0097 58.6313 71.3919C57.891 70.81 57.1005 70.3072 56.152 70.1924C56.4394 70.0199 56.7268 70.0917 56.9783 70.185C57.9844 70.5585 58.8037 71.1907 59.4505 72.0241C59.7883 72.5055 60.0759 73.0659 60.3993 73.6048Z" fill="white"/>
<path d="M61.6206 68.7183C62.993 68.2366 64.315 67.5896 65.5436 66.7056C65.285 67.496 62.8781 68.6965 61.6206 68.7183Z" fill="white"/>
<path d="M52.5623 83.8312C51.8725 83.6589 51.132 81.6112 51.2395 80.0806C51.3833 80.7273 51.484 81.3021 51.6781 81.8698C51.8794 82.5308 52.0448 83.2134 52.5767 83.7738C52.5551 83.7378 52.5408 83.7953 52.5623 83.8312Z" fill="white"/>
<path d="M66.5845 60.705C65.9308 61.977 64.9322 62.9185 63.8689 63.7522C64.7669 62.7245 65.6864 61.7327 66.5845 60.705Z" fill="white"/>
<path d="M34.6201 46.3687C35.303 47.6691 35.9643 48.9337 36.6256 50.1982C35.7488 49.0631 35.0515 47.8201 34.5123 46.4334C34.5483 46.4118 34.5842 46.3902 34.6201 46.3687Z" fill="white"/>
<path d="M39.1485 54.89C40.4133 55.4502 41.5128 56.3051 42.598 57.2175C41.4338 56.4991 40.284 55.7233 39.1198 55.0049C39.0982 54.969 39.1342 54.9475 39.1485 54.89Z" fill="white"/>
<path d="M50.2612 75.9274C51.5616 75.0002 52.3086 73.7211 52.4951 71.9965C52.7325 73.3689 51.6838 75.1223 50.2612 75.9274Z" fill="white"/>
<path d="M34.1903 57.3774C33.2201 56.4937 32.4008 55.6172 31.5886 54.5898C31.991 54.6904 33.371 56.2566 34.1903 57.3774Z" fill="white"/>
<path d="M44.5322 64.022C45.8689 64.7834 47.0044 65.861 48.2549 66.7231C48.219 66.7446 48.2046 66.8021 48.1687 66.8237C46.9685 65.8826 45.7683 64.9415 44.5322 64.022Z" fill="white"/>
<path d="M62.9778 66.0954C61.9575 66.7566 60.8726 67.3101 59.7158 67.6625C59.6942 67.6265 59.6727 67.5906 59.6511 67.5547C60.7432 67.0946 61.8497 66.577 62.9778 66.0954Z" fill="white"/>
<path d="M60.7884 77.6716C60.6301 76.5938 60.2922 75.6238 59.7602 74.5748C60.4934 75.5519 60.8887 76.5363 60.7884 77.6716Z" fill="white"/>
<path d="M55.585 74.5403C55.3836 73.6349 55.2038 72.7655 55.0025 71.8601C55.0384 71.8386 55.0959 71.8529 55.1318 71.8314C55.405 72.6936 55.5704 73.6205 55.585 74.5403Z" fill="white"/>
<path d="M49.377 74.9435C48.9747 75.5759 48.4359 76.1436 47.7318 76.5174C47.7102 76.4815 47.6887 76.4456 47.6312 76.4312C48.2131 75.9353 48.7951 75.4394 49.377 74.9435Z" fill="white"/>
<path d="M51.951 84.1982C51.3833 83.9037 51.1964 83.4295 51.0885 82.7612C51.4119 83.3001 51.6923 83.7671 51.951 84.1982Z" fill="white"/>
<path d="M66.5768 61.8338C66.2535 62.2721 65.8871 62.6387 65.3842 62.9406C65.729 62.5381 66.1313 62.15 66.4762 61.7476C66.5337 61.7619 66.5552 61.7978 66.5768 61.8338Z" fill="white"/>
<path d="M114.358 159.427C113.603 158.169 112.813 156.934 112.058 155.676C111.023 153.952 110.009 152.263 108.938 150.561C107.846 148.822 106.703 147.162 105.56 145.503C104.755 144.324 103.95 143.146 103.124 141.932C102.383 140.861 101.665 139.827 100.888 138.778C100.256 137.887 99.6233 136.996 98.9908 136.105C97.9846 134.754 96.9999 133.44 95.9936 132.089C95.699 131.679 95.3899 131.327 95.0593 130.939C94.0315 129.797 92.9319 128.698 91.8826 127.52C90.2799 125.745 88.6772 123.971 87.1607 122.095C85.2488 119.725 83.531 117.188 82.0646 114.501C80.7277 112.03 79.6853 109.479 78.7291 106.828C78.0101 104.816 77.1834 102.869 76.4285 100.878C76.1985 100.332 75.875 99.7934 75.7025 99.2617C75.0698 97.3935 74.0563 95.7051 73.1506 93.952C70.9438 89.7057 68.3922 85.6176 65.898 81.5438C64.9923 80.035 64.0723 78.5837 63.1307 77.0964C62.6779 76.342 62.1532 75.6308 61.7219 74.9123C61.5925 74.6967 61.5566 74.474 61.4631 74.2369C61.499 74.2153 61.535 74.1938 61.5709 74.1722C61.5924 74.2081 61.6499 74.2225 61.6715 74.2584C64.4172 78.6698 67.1845 83.1172 69.8943 87.5502C71.2313 89.7775 72.4748 92.012 73.704 94.304C74.6456 96.0356 75.422 97.8174 76.2918 99.5921C76.4715 99.9729 76.7446 100.347 76.8166 100.792C76.9748 101.626 77.4276 102.38 77.7152 103.185C78.5276 105.434 79.3184 107.647 80.1668 109.874C80.5478 110.916 81.0725 111.871 81.547 112.906C82.4887 114.882 83.6459 116.728 84.839 118.553C85.565 119.681 86.4562 120.759 87.254 121.844C89.1587 124.366 91.3292 126.679 93.4781 128.956C94.3549 129.847 95.1599 130.781 95.9505 131.773C96.6764 132.656 97.3664 133.562 98.0204 134.489C98.962 135.731 99.8676 136.996 100.773 138.26C101.47 139.259 102.168 140.258 102.865 141.256C103.713 142.507 104.619 143.771 105.467 145.021C106.358 146.343 107.264 147.608 108.119 148.951C110.175 152.213 112.158 155.518 114.178 158.802C114.308 159.017 114.415 159.197 114.581 159.391C114.466 159.362 114.394 159.405 114.358 159.427Z" fill="white"/>
<path d="M103.183 73.2375C100.388 71.8368 98.0954 69.89 95.8028 67.9431C93.0503 65.637 90.3121 63.2735 87.538 60.9315C86.5319 60.0694 85.5976 59.1642 84.8213 58.1153C84.5482 57.7417 84.3253 57.289 84.1744 56.7932C84.0162 56.204 84.3035 55.7872 84.9215 55.7584C85.2951 55.7295 85.6903 55.7367 86.0712 55.8013C86.9335 56.0167 87.7814 56.2896 88.6438 56.505C88.8162 56.5481 88.9528 56.6127 89.2043 56.7061C89.1323 56.2606 88.6796 55.9948 88.8879 55.5277C89.3693 55.1899 89.9369 54.9957 90.5117 54.895C93.2996 54.2478 95.865 54.8581 98.2725 56.3451C98.4306 56.4456 98.5887 56.5462 98.8258 56.6971C98.682 56.2947 98.6029 56.0001 98.5454 55.7414C98.2937 54.6708 98.042 53.6002 97.8262 52.508C97.3946 49.8351 97.7606 47.2697 98.9242 44.812C99.2115 44.1509 99.6353 43.5544 100.26 43.1304C100.656 42.8932 101.058 42.7494 101.489 42.7349C101.676 42.7205 101.899 42.6845 102.071 42.7276C103.415 42.8495 104.773 42.914 106.081 43.0574C107.769 43.2655 109.056 44.106 109.904 45.6004C110.271 46.2111 110.565 46.8649 110.896 47.4972C110.996 47.3391 111.083 47.2385 111.183 47.0804C112.167 45.4635 113.439 44.1626 114.912 43.0342C115.214 42.8042 115.508 42.4808 115.918 42.4304C116.105 42.416 116.313 42.4375 116.5 42.4231C116.572 42.6243 116.636 42.7321 116.73 42.9692C116.881 42.732 116.981 42.5739 117.06 42.3799C117.635 41.302 118.511 40.4826 119.532 39.8214C120.753 39.0882 122.449 39.3897 123.376 40.4458C123.829 40.9559 124.102 41.5738 124.375 42.1917C125.259 44.3975 126.072 46.6465 126.625 48.9529C127.337 52.0929 127.64 55.2833 127.08 58.5025C127.087 58.5959 127.037 58.675 127.044 58.7684C127.044 58.7684 127.066 58.8043 127.073 58.8977C127.217 58.8115 127.303 58.7109 127.446 58.6246C128.359 57.7837 129.429 57.2877 130.615 57.0647C132.153 56.777 133.734 56.8055 135.271 57.0064C136.486 57.157 137.635 57.2 138.871 57.1422C139.432 57.099 139.978 57.1133 140.546 57.1635C140.998 57.1849 141.444 57.3573 141.595 57.8531C141.703 58.277 141.473 58.7082 140.948 58.9742C140.424 59.2401 139.892 59.4127 139.324 59.6068C137.543 60.1389 135.696 60.5632 133.936 61.1312C132.247 61.656 130.666 62.3605 129.093 63.1584C126.398 64.5314 124.121 66.436 121.872 68.4699C120.924 69.3324 119.976 70.1949 118.862 70.8633C117.77 71.5677 116.98 72.5307 116.448 73.6805C116.082 74.5357 116.075 75.4195 116.477 76.253C116.549 76.4542 116.621 76.6553 116.722 76.9859C116.14 76.5045 115.658 76.1094 115.177 75.7143C114.056 74.8235 112.719 74.5507 111.354 74.6372C110.98 74.666 110.621 74.8816 110.333 75.0541C108.918 75.9526 107.733 77.1528 106.727 78.4895C105.649 79.8694 104.615 81.3211 103.595 82.7153C102.848 83.7501 102.036 84.6772 101.044 85.4678C100.283 86.0716 99.435 86.5316 98.4937 86.7545C96.9633 87.1357 95.44 87.6102 93.8736 88.0129C93.5072 88.1351 93.1192 88.2214 92.7455 88.2502C91.4737 88.3295 90.0867 87.4028 90.3307 85.6926C90.4383 84.895 90.6825 84.162 91.1207 83.508C91.9899 82.1067 92.9166 80.7197 93.7498 79.3399C94.5185 78.0966 95.5458 77.0401 96.6594 76.1274C98.4987 74.6324 100.539 73.5542 102.939 73.2376C103.018 73.2879 103.054 73.2663 103.183 73.2375ZM116.356 42.7537C115.975 42.6891 115.666 42.8257 115.436 43.0125C114.89 43.4869 114.323 43.9253 113.798 44.4356C112.096 45.9952 110.946 47.9068 110.056 50.0051C108.44 53.6629 108.282 57.4713 108.958 61.3658C109.512 64.4052 110.727 67.2433 112.409 69.8011C112.833 70.4261 113.293 71.0296 113.789 71.6116C114.285 72.1935 114.975 72.3658 115.657 72.2004C116.433 72.0278 117.217 71.7043 117.914 71.2371C119.042 70.5112 120.126 69.7134 121.111 68.8294C122.993 67.1619 124.48 65.2431 125.486 62.9292C127.446 58.3803 127.424 53.7025 126.345 48.9745C125.856 46.7758 125.108 44.6347 124.231 42.5223C123.951 41.8109 123.671 41.0996 123.103 40.5608C122.169 39.6556 120.746 39.4834 119.632 40.1519C118.698 40.7125 117.965 41.4456 117.455 42.387C117.204 42.7823 117.032 43.2278 116.78 43.6231C116.694 43.7237 116.608 43.8243 116.522 43.9249C116.464 43.9106 116.443 43.8746 116.407 43.8962C116.435 43.5369 116.385 43.1273 116.356 42.7537ZM89.8942 57.1227C89.8798 57.1802 89.808 57.2233 89.7936 57.2808C89.6211 57.2377 89.4271 57.1587 89.2546 57.1156C88.3492 56.8284 87.4581 56.4836 86.5743 56.2323C86.0928 56.0815 85.5826 56.0457 85.0581 56.0673C84.5694 56.0674 84.3467 56.3477 84.4762 56.8075C84.6415 57.2458 84.8644 57.6985 85.159 58.108C85.8922 59.0851 86.8049 59.9544 87.7463 60.7087C89.8952 62.4975 92.0584 64.2289 94.1929 66.0752C96.1261 67.749 98.0593 69.4229 100.079 70.9962C102.831 73.0579 105.885 74.1568 109.32 74.0986C110.333 74.0769 111.346 74.0551 112.331 73.6597C112.733 73.516 113.092 73.3003 113.408 73.0128C113.761 72.7038 113.796 72.4379 113.523 72.0643C113.351 71.7769 113.106 71.5327 112.884 71.3243C111.532 70.1318 110.045 69.1189 108.557 68.106C105.905 66.3748 103.692 64.2339 101.859 61.6689C101.018 60.5122 100.263 59.2549 99.5087 57.9975C99.099 57.315 98.6103 56.8265 97.9778 56.4242C97.6042 56.2087 97.2305 55.9932 96.8209 55.7992C94.7009 54.8727 92.5524 54.5498 90.289 55.1753C89.9226 55.2976 89.4555 55.3336 89.1107 55.736C89.3767 56.2605 89.6354 56.6916 89.8942 57.1227ZM110.709 48.0002C110.486 47.059 110.033 46.3046 109.559 45.5142C108.919 44.5299 108.057 43.8259 106.907 43.5387C106.217 43.3664 105.427 43.3521 104.687 43.2589C104.212 43.2015 103.702 43.1656 103.25 43.1442C102.624 43.0796 101.985 43.0726 101.345 43.0655C100.799 43.0512 100.332 43.3316 100.009 43.7699C99.6857 44.2083 99.3984 44.6251 99.1542 45.1138C98.5221 46.4217 98.2349 47.8158 98.0627 49.2385C97.8691 51.114 98.2143 52.9104 98.6171 54.7211C98.9407 56.2372 99.5589 57.6742 100.357 59.0034C101.191 60.311 102.111 61.518 103.052 62.7609C104.26 64.284 105.683 65.6778 107.256 66.8344C108.852 68.0269 110.498 69.1403 112.129 70.3113C112.186 70.3256 112.244 70.34 112.323 70.3903C111.82 69.4706 111.338 68.5869 110.871 67.6457C110.404 66.7044 109.972 65.7416 109.634 64.7716C109.059 63.1622 108.671 61.5383 108.484 59.8425C108.074 55.984 108.526 52.3408 110.307 48.877C110.393 48.532 110.522 48.259 110.709 48.0002ZM110.829 74.4145C110.808 74.3786 110.786 74.3427 110.786 74.3427C110.693 74.3499 110.578 74.3212 110.448 74.3499C108.429 74.4868 106.424 74.3219 104.477 73.6828C104.225 73.5894 103.902 73.5392 103.622 73.5608C102.235 73.6114 100.927 73.9565 99.6986 74.5962C98.743 75.121 97.7947 75.7391 96.9253 76.4076C95.8404 77.2054 94.9568 78.1756 94.2169 79.3039C93.6278 80.195 93.0747 81.0646 92.5431 81.97C92.0403 82.7605 91.5734 83.5295 91.1712 84.4062C90.9485 84.9308 90.8049 85.5057 90.7188 86.0949C90.604 87.0434 91.0855 87.6829 91.991 87.9701C92.5874 88.1497 93.1623 88.0489 93.7514 87.8908C94.5059 87.6822 95.2747 87.4162 96.0292 87.2077C97.5237 86.8481 98.6661 86.0647 99.4275 84.728C100.009 83.7435 100.498 82.7661 101.058 81.7457C101.568 80.8043 102.078 79.8629 102.646 78.9358C103.335 77.8866 104.255 77.1391 105.462 76.7077C106.432 76.3698 107.344 76.0176 108.336 75.7156C109.234 75.4208 110.024 74.9464 110.829 74.4145ZM141.315 57.8747C140.991 57.5802 140.61 57.5156 140.215 57.5084C139.022 57.3937 137.923 57.7604 136.852 58.2564C135.782 58.7524 134.632 58.9538 133.468 58.7241C132.685 58.559 131.923 58.4298 131.104 58.2862C130.321 58.1211 129.552 58.1428 128.797 58.3513C127.691 58.6246 127.015 59.372 126.721 60.4283C126.19 62.3111 125.428 64.1364 124.315 65.7821C124.229 65.8827 124.2 65.9977 124.135 66.1342C124.66 65.8682 125.048 65.5376 125.493 65.2214C126.312 64.632 127.153 64.0785 127.958 63.5467C128.64 63.1369 129.351 62.8566 130.056 62.4828C131.449 61.7927 132.908 61.2104 134.395 60.7574C136.012 60.2757 137.636 59.8874 139.253 59.4056C139.784 59.2331 140.294 59.0246 140.805 58.8161C141.221 58.6148 141.386 58.3202 141.315 57.8747ZM98.4146 86.4599C99.4206 86.3448 100.247 85.8488 100.972 85.2666C102.014 84.397 102.855 83.3549 103.638 82.2985C104.744 80.8037 105.814 79.3304 106.978 77.85C107.474 77.2103 108.07 76.657 108.623 76.0317C108.53 76.0389 108.437 76.0461 108.379 76.0317C107.61 76.2978 106.877 76.5422 106.109 76.8082C105.175 77.1246 104.305 77.5487 103.666 78.2745C103.149 78.8782 102.674 79.5538 102.294 80.2221C101.618 81.4581 101.022 82.7445 100.29 83.9662C99.8945 84.692 99.3629 85.3532 98.8672 85.9928C98.7092 86.1365 98.5511 86.2803 98.4146 86.4599ZM137.384 57.5952C136.701 57.5163 136.055 57.4158 135.394 57.3728C134.524 57.3083 133.655 57.2438 132.771 57.2368C131.643 57.2298 130.507 57.3737 129.415 57.8338C129.473 57.8482 129.53 57.8625 129.566 57.841C130.457 57.6971 131.283 57.9341 132.16 58.092C132.886 58.2427 133.626 58.336 134.366 58.4293C135.466 58.5512 136.428 58.1199 137.384 57.5952Z" fill="white"/>
<path d="M110.036 65.8494C110.087 65.2817 109.878 64.7716 109.526 64.3477C108.894 63.7011 108.383 62.9324 107.894 62.1995C106.716 60.3171 105.738 58.3628 104.954 56.2432C104.581 55.2948 104.264 54.3607 103.89 53.4123C103.84 53.247 103.811 53.1177 103.818 52.9668C104.077 53.6422 104.315 54.2817 104.609 54.9355C105.077 56.121 105.565 57.3425 106.105 58.4849C106.644 59.6273 107.255 60.7266 107.844 61.79C108.211 62.4007 108.613 62.9898 109.052 63.5574C109.138 63.7011 109.296 63.8017 109.418 63.9238C109.317 62.8603 109.145 61.84 109.123 60.8268C109.08 59.7778 109.13 58.7215 109.503 57.7154C109.532 57.6004 109.561 57.4855 109.568 57.3346C110.085 54.7764 110.853 52.3116 111.851 49.9042C111.88 49.7892 111.945 49.6527 111.995 49.5736C112.031 49.5521 112.067 49.5305 112.103 49.509C111.722 50.6659 111.306 51.8444 110.947 53.0373C110.501 54.5751 110.15 56.1057 109.74 57.6219C109.489 58.5058 109.331 59.3825 109.346 60.3023C109.324 62.2208 109.562 64.0818 110.338 65.8637C110.403 65.9715 110.489 66.1152 110.554 66.223C110.504 66.302 110.489 66.3595 110.489 66.3595C110.331 66.2589 110.166 66.065 110.036 65.8494Z" fill="white"/>
<path d="M108.091 72.5397C106.524 71.7208 105.058 70.7439 103.678 69.6663C101.939 68.3157 100.444 66.7208 98.9993 65.0468C97.7631 63.6387 96.5772 62.1515 95.377 60.7218C95.2332 60.5637 95.0895 60.4056 95.032 60.147C95.5063 60.693 95.995 61.1815 96.4694 61.7275C97.684 63.0998 98.8627 64.4935 100.041 65.8873C102.205 68.3516 104.727 70.3559 107.494 72.1159C107.674 72.2523 107.875 72.4248 108.091 72.5397Z" fill="white"/>
<path d="M121.919 48.3573C121.086 54.379 119.6 60.2068 117.596 65.9053C119.428 60.1637 120.835 54.2856 121.919 48.3573Z" fill="white"/>
<path d="M108.011 73.9554C106.826 73.9341 105.741 73.5103 104.706 73.0075C102.054 71.7649 99.7257 70.0839 97.5984 68.0867C96.8079 67.3396 96.0676 66.5134 95.3992 65.644C95.622 65.8524 95.8663 66.0966 96.0532 66.3265C98.468 68.8842 101.17 71.025 104.318 72.6052C105.453 73.1942 106.689 73.6251 108.011 73.9554Z" fill="white"/>
<path d="M107.078 74.272C107.43 74.2073 107.767 74.2 108.12 74.1353C108.076 74.0634 107.997 74.0131 107.976 73.9772L107.99 73.9197C108.443 73.9412 108.91 73.9052 109.276 74.2716C109.183 74.2788 109.111 74.3219 108.996 74.2932C107.624 74.2863 106.359 74.7033 105.102 75.2137C103.593 75.875 102.357 76.91 101.122 77.945C100.346 78.6062 99.5912 79.3033 98.7578 79.9502C99.3326 79.3609 99.9217 78.7141 100.54 78.1966C101.718 77.1473 102.882 76.1554 104.29 75.4078C105.03 75.0125 105.799 74.7465 106.582 74.423C106.783 74.3511 106.948 74.3008 107.078 74.272Z" fill="white"/>
<path d="M97.9113 48.7429C97.976 48.8507 98.0407 48.9585 98.0479 49.0519C98.4362 50.6758 99.0257 52.2278 99.7086 53.7725C99.9171 54.2827 100.183 54.8072 100.463 55.2742C101.247 56.6609 101.994 58.0691 102.735 59.3839C100.931 57.1926 97.9189 51.0351 97.9113 48.7429Z" fill="white"/>
<path d="M124.809 58.5463C124.249 61.5212 123.459 64.4387 121.972 67.0905C121.361 68.19 120.593 69.189 119.723 70.1017C119.673 70.1808 119.544 70.2095 119.414 70.2383C119.465 70.1592 119.493 70.0443 119.58 69.9437C121.627 67.7373 122.87 65.0856 123.724 62.2758C124.155 61.0398 124.471 59.7751 124.809 58.5463Z" fill="white"/>
<path d="M115.851 72.2796C116.907 71.1082 117.633 69.7931 118.2 68.3774C119.084 66.1856 119.701 63.958 120.333 61.6729C120.312 61.8812 120.269 62.0537 120.247 62.2621C120.226 62.4705 120.182 62.6429 120.125 62.8729C119.515 65.4383 118.825 67.9533 117.575 70.2673C117.195 70.9357 116.735 71.5537 116.239 72.1934C116.139 72.3515 116.117 72.3155 115.851 72.2796Z" fill="white"/>
<path d="M110.518 66.2442C110.461 65.9855 110.418 65.6694 110.36 65.4107C110.058 63.9305 110.058 62.4646 110.094 60.9772C110.101 60.582 110.072 60.2083 110.101 59.8491C110.337 58.534 110.596 57.255 110.912 55.9902C111.041 55.4729 111.192 54.9914 111.4 54.5243C111.3 54.9267 111.213 55.2716 111.113 55.674C110.883 56.8382 110.618 58.0238 110.445 59.2023C110.101 61.3149 110.187 63.4131 110.554 65.4897C110.734 66.6034 111.223 67.5806 111.64 68.6009C111.345 67.947 111.014 67.3147 110.72 66.6609C110.648 66.4597 110.583 66.3519 110.518 66.2442Z" fill="white"/>
<path d="M133.051 59.414C131.428 60.5353 129.761 61.5847 128.159 62.7419C126.556 63.8991 125.098 65.2143 123.884 66.7738C123.862 66.7379 123.805 66.7235 123.805 66.7235C123.87 66.587 123.898 66.472 123.984 66.3714C124.732 65.5808 125.457 64.7543 126.247 64.0356C127.318 63.051 128.475 62.2101 129.71 61.4194C130.393 61.0097 131.068 60.5066 131.751 60.0969C132.182 59.8381 132.656 59.6512 133.109 59.4284C133.073 59.4499 133.051 59.414 133.051 59.414Z" fill="white"/>
<path d="M116.939 48.8546C116.845 49.1061 116.788 49.3361 116.716 49.6235C115.912 52.1099 115.258 54.6034 114.741 57.1616C114.54 58.2107 114.339 59.2599 114.138 60.309C114.117 60.5174 114.038 60.7114 113.959 60.9054C114.562 56.7808 115.359 52.7351 116.824 48.8259C116.881 48.8402 116.881 48.8402 116.939 48.8546Z" fill="white"/>
<path d="M92.7753 54.758C93.0125 54.9088 93.228 55.0238 93.4293 55.1962C94.6654 56.1157 95.6715 57.2221 96.6993 58.3644C97.5618 59.3128 98.4242 60.2611 99.2507 61.231C99.4951 61.4753 99.6892 61.7986 99.9192 62.1003C97.4972 59.6936 95.4272 56.9778 92.6747 54.9161C92.725 54.837 92.7609 54.8155 92.7753 54.758Z" fill="white"/>
<path d="M124.937 53.6315C125.03 50.6926 125.54 47.7967 125.18 44.8363C125.237 44.8506 125.273 44.8291 125.331 44.8434C125.381 45.0087 125.396 45.1955 125.41 45.3823C125.432 46.3955 125.547 47.4015 125.475 48.4218C125.396 49.8374 125.224 51.2602 125.11 52.6973C125.095 52.9991 125.045 53.3225 124.937 53.6315Z" fill="white"/>
<path d="M111.195 74.0479C111.066 73.8323 110.915 73.5809 110.785 73.3653C110.189 72.4529 109.398 71.7057 108.608 70.9585C107.673 70.0533 106.689 69.2272 105.618 68.2573C105.834 68.3723 105.891 68.3866 105.992 68.4728C107.695 69.845 109.326 71.2602 110.771 72.9342C111.001 73.2359 111.288 73.5521 111.339 73.9616C111.303 73.9832 111.231 74.0263 111.195 74.0479Z" fill="white"/>
<path d="M98.6996 76.271C96.5586 77.996 94.2308 79.491 92.6432 81.8123C92.6216 81.7763 92.5641 81.762 92.5425 81.7261C92.6072 81.5895 92.6359 81.4745 92.7221 81.3739C93.2753 80.5044 93.9721 79.7929 94.7696 79.1676C95.7251 78.3985 96.6663 77.687 97.6434 76.9539C97.9596 76.6664 98.3404 76.4867 98.6996 76.271Z" fill="white"/>
<path d="M116.713 72.0065C116.727 71.949 116.742 71.8916 116.778 71.87C117.532 71.1728 117.992 70.3105 118.43 69.4122C118.99 68.1474 119.514 66.9042 120.132 65.6538C120.075 65.8838 120.053 66.0921 119.938 66.3077C119.349 67.6875 118.782 69.1031 118.171 70.447C117.963 70.9141 117.582 71.3381 117.259 71.7765C117.159 71.9346 116.957 72.0065 116.835 72.1287C116.756 72.0784 116.735 72.0424 116.713 72.0065Z" fill="white"/>
<path d="M91.6886 86.4902C93.0031 83.7953 95.1009 81.7542 97.2993 79.7993C96.6384 80.4893 95.9559 81.1433 95.2949 81.8333C94.6196 82.5807 93.9443 83.3281 93.3265 84.0899C92.7661 84.866 92.2274 85.6781 91.6886 86.4902Z" fill="white"/>
<path d="M101.772 59.8154C103.612 62.2294 105.646 64.4782 108.082 66.3388C105.524 64.6004 103.526 62.3301 101.772 59.8154Z" fill="white"/>
<path d="M107.295 43.4528C108.653 45.2274 109.02 47.304 109.444 49.3949C108.747 47.419 108.359 45.3065 107.295 43.4528Z" fill="white"/>
<path d="M115.336 48.0568C115.71 46.0735 116.112 44.2195 117.031 42.4948C117.146 42.5235 117.146 42.5235 117.168 42.5594L117.189 42.5953C116.557 44.3919 115.961 46.1668 115.336 48.0568Z" fill="white"/>
<path d="M94.6278 87.8045C96.4527 86.6113 97.9758 85.1596 99.391 83.5282C99.3264 83.6647 99.2761 83.7438 99.1899 83.8444C98.335 84.9439 97.4011 85.9932 96.2587 86.7766C95.8492 87.0713 95.4037 87.3876 94.9727 87.6464C94.8864 87.747 94.7571 87.7757 94.6278 87.8045Z" fill="white"/>
<path d="M124.537 65.2571C125.967 63.0796 128.014 61.6062 130.084 60.1687C128.158 61.7642 126.111 63.2377 124.537 65.2571Z" fill="white"/>
<path d="M93.4008 60.9305C92.2725 60.1906 89.5414 57.1875 89.3328 56.4331C90.7271 57.9418 92.0424 59.4002 93.4008 60.9305Z" fill="white"/>
<path d="M98.7047 65.6147C100.394 67.533 102.291 69.2284 104.346 70.7801C102.169 69.3506 100.257 67.7127 98.7047 65.6147Z" fill="white"/>
<path d="M108.55 68.0125C110.404 69.3917 112.15 70.8357 112.876 73.1853C112.208 71.3387 110.778 70.0959 109.347 68.853C109.046 68.5944 108.744 68.3358 108.463 68.1131C108.499 68.0915 108.514 68.034 108.55 68.0125Z" fill="white"/>
<path d="M112.653 70.0452C112.2 69.0465 112.76 65.0943 113.413 64.0667C113.134 66.0428 112.458 68.0118 112.653 70.0452Z" fill="white"/>
<path d="M98.1551 47.766C98.7231 49.7707 99.6361 51.6172 100.369 53.5716C99.4564 51.725 98.5579 49.821 98.1551 47.766Z" fill="white"/>
<path d="M115.691 57.7646C115.08 60.33 114.47 62.8954 114.09 65.5182C114.061 65.6332 113.975 65.7338 113.91 65.8703C114.298 63.0966 114.879 60.4019 115.691 57.7646Z" fill="white"/>
<path d="M110.036 65.8495C109.512 65.3826 108.937 64.9946 108.52 64.463C107.586 63.3135 106.738 62.0633 105.853 60.8348C105.889 60.8132 105.925 60.7916 105.94 60.7341C106.062 60.8563 106.127 60.964 106.249 61.0862C106.608 61.6035 106.946 62.0848 107.305 62.6021C108.024 63.6367 108.815 64.6282 109.727 65.4975C109.85 65.6196 109.936 65.7633 110.036 65.8495Z" fill="white"/>
<path d="M103.889 43.1509C104.845 44.5807 105.384 46.2117 105.851 47.8859C105.168 46.3411 104.464 44.7604 103.781 43.2156C103.817 43.194 103.853 43.1725 103.889 43.1509Z" fill="white"/>
<path d="M121.299 44.9663C121.658 43.2848 122.017 41.6033 122.434 39.9361C122.434 39.9361 122.47 39.9146 122.491 39.9505C122.506 40.1373 122.534 40.2667 122.491 40.4391C122.254 41.9984 121.845 43.5147 121.299 44.9663Z" fill="white"/>
<path d="M101.215 80.1362C99.9939 81.8466 98.6577 83.5283 97.1778 85.0519C98.4781 83.3918 99.8358 81.746 101.136 80.0859C101.158 80.1218 101.215 80.1362 101.215 80.1362Z" fill="white"/>
<path d="M85.0867 55.9522C86.2726 57.1951 87.4369 58.4021 88.5868 59.6665C87.2645 58.6033 86.0068 57.4036 84.9287 56.096C85.0005 56.0528 85.0364 56.0313 85.0867 55.9522Z" fill="white"/>
<path d="M108.371 69.5859C109.657 70.915 111.051 72.1794 111.806 73.9254C110.821 72.3663 109.549 70.9797 108.371 69.5859Z" fill="white"/>
<path d="M141.236 57.5798C140.956 58.09 138.534 59.1036 137.104 59.3267C138.469 58.7516 139.835 58.1764 141.236 57.5798Z" fill="white"/>
<path d="M108.705 53.6989C108.783 52.039 108.194 50.487 107.899 48.856C108.733 50.8965 109.114 52.9156 108.705 53.6989Z" fill="white"/>
<path d="M107.114 74.2501C106.338 74.1784 105.627 74.4588 104.937 74.7751C104.499 74.9404 104.067 75.1992 103.615 75.422C103.162 75.6448 102.745 75.8461 102.293 76.069C103.435 75.2855 104.642 74.6098 105.928 74.2288C106.223 74.1497 106.575 74.0849 106.891 74.0417C106.985 74.0345 107.1 74.0633 107.114 74.2501Z" fill="white"/>
<path d="M121.256 42.9398C121.436 41.8547 121.694 40.8199 121.931 39.7492C122.104 40.2809 121.623 42.3289 121.256 42.9398Z" fill="white"/>
<path d="M91.5183 59.6662C90.6846 59.0915 89.2257 57.475 89.0962 57.0152C89.9515 57.8701 90.6989 58.7897 91.5183 59.6662Z" fill="white"/>
<path d="M96.7994 57.7177C95.8651 56.8125 94.938 56.0007 94.0253 55.1314C94.0037 55.0955 94.0038 55.0955 94.0181 55.038C94.6002 55.275 96.325 56.9274 96.7994 57.7177Z" fill="white"/>
<path d="M102.517 45.5875C102.006 44.8187 101.388 43.3817 101.453 43.0008C101.913 43.8487 102.279 44.7037 102.517 45.5875Z" fill="white"/>
<path d="M104.485 43.331C104.923 43.8986 105.161 44.538 105.312 45.2781C104.981 44.6459 104.708 44.0279 104.377 43.3957C104.413 43.3741 104.449 43.3525 104.485 43.331Z" fill="white"/>
<path d="M150.921 131.518C150.828 131.281 150.698 131.065 150.641 130.807C150.497 130.16 150.296 129.499 150.209 128.867C149.965 126.912 149.777 124.972 149.626 123.011C149.446 120.431 149.949 117.93 150.875 115.566C151.787 113.259 153.217 111.326 155.243 109.817C157.111 108.451 159.202 107.538 161.386 106.862C163.383 106.201 165.438 105.554 167.414 104.856C168.42 104.497 169.419 104.044 170.418 103.591C170.525 103.526 170.655 103.498 170.899 103.498C170.813 103.598 170.784 103.713 170.698 103.814C170.066 104.389 169.419 105.021 168.787 105.596C167.68 106.602 166.488 107.465 165.216 108.277C163.334 109.456 161.415 110.656 159.533 111.835C158.441 112.54 157.306 113.172 156.199 113.934C153.541 115.774 151.702 118.246 150.912 121.408C150.61 122.615 150.352 123.894 150.223 125.145C150.001 127.135 150.396 129.097 150.885 131.051C150.892 131.144 150.957 131.252 150.964 131.346C150.986 131.382 150.971 131.439 150.957 131.497L150.921 131.518ZM149.849 122.486C149.885 122.464 149.885 122.464 149.921 122.443C149.992 121.911 150.028 121.401 150.1 120.869C150.495 117.945 151.744 115.386 153.821 113.309C155.358 111.8 157.19 110.7 159.152 109.816C160.186 109.342 161.185 108.889 162.22 108.414C163.635 107.76 165.065 107.048 166.48 106.394C167.479 105.941 168.37 105.309 169.261 104.676C169.369 104.612 169.469 104.454 169.556 104.353C167.149 105.309 164.727 106.078 162.284 106.812C160.078 107.452 157.98 108.271 156.012 109.551C155.099 110.147 154.251 110.852 153.526 111.678C150.896 114.625 149.913 118.196 149.741 122.062C149.806 122.17 149.834 122.299 149.849 122.486ZM167.975 106.035C167.953 105.999 167.932 105.963 167.932 105.963C167.264 106.315 166.595 106.667 165.906 106.984C164.275 107.767 162.608 108.572 160.934 109.284C159.224 110.017 157.614 110.837 156.077 111.857C155.452 112.281 154.848 112.741 154.266 113.237C151.795 115.552 150.516 118.469 150.23 121.818C150.186 122.234 150.201 122.666 150.194 123.061C150.402 122.594 150.438 122.084 150.574 121.66C150.977 120.294 151.436 118.943 152.19 117.757C153.361 115.882 154.956 114.387 156.803 113.23C159.849 111.303 163.025 109.593 165.927 107.508C166.639 106.984 167.278 106.502 167.975 106.035Z" fill="white"/>
<path d="M153.588 135.879C153.157 135.16 152.762 134.42 152.295 133.723C151.317 132.258 150.318 130.756 149.269 129.333C148.234 127.853 147.127 126.416 146.056 124.958C145.359 123.959 144.604 122.946 143.979 121.904C142.606 119.699 141.326 117.486 139.989 115.259C139.644 114.684 139.335 114.087 138.99 113.513C138.07 111.817 137.128 110.085 136.172 108.411C136.108 108.304 136.022 108.16 136.237 108.03C136.323 108.174 136.388 108.282 136.474 108.426C137.761 110.732 138.976 113.081 140.277 115.33C141.599 117.615 142.958 119.878 144.352 122.12C145.1 123.284 145.919 124.405 146.717 125.49C147.58 126.682 148.42 127.839 149.247 129.053C150.009 130.16 150.807 131.244 151.569 132.351C152.244 133.314 152.826 134.284 153.466 135.268C153.574 135.448 153.696 135.57 153.804 135.749C153.768 135.771 153.696 135.814 153.588 135.879Z" fill="white"/>
<path d="M116.075 75.6636C116.139 75.7713 116.24 75.8576 116.305 75.9653C116.65 76.5401 116.973 77.079 117.318 77.6538C118.31 79.3063 119.374 80.9156 120.524 82.4244C120.732 82.6902 120.941 82.9561 121.149 83.2219C121.257 83.4015 121.365 83.5811 121.516 83.8326C120.668 83.5597 116.405 76.7845 116.075 75.6636Z" fill="white"/>
</svg>
