<svg width="22" height="22" viewBox="0 0 22 22" fill="none" xmlns="http://www.w3.org/2000/svg">
<path d="M21 11C21 16.5228 16.5228 21 11 21M21 11C21 5.47715 16.5228 1 11 1M21 11C21 11 14.9052 11 11 11C7.09476 11 1 11 1 11M11 21C5.47715 21 1 16.5228 1 11M11 21C7.82786 18.1363 6.55556 15.2736 6.55556 11C6.55556 6.72642 7.82786 3.86374 11 1M11 21C14.1721 18.1363 15.4444 15.2736 15.4444 11C15.4444 6.72642 14.1721 3.86374 11 1M1 11C1 5.47715 5.47715 1 11 1" stroke="white" stroke-linecap="round" stroke-linejoin="round"/>
</svg>
